<?xml version="1.0" encoding="UTF-8"?>
<svg version="1.1" xmlns="http://www.w3.org/2000/svg" width="240" height="240">
<path d="M0 0 C79.2 0 158.4 0 240 0 C240 79.2 240 158.4 240 240 C160.8 240 81.6 240 0 240 C0 160.8 0 81.6 0 0 Z " fill="#FDFCFC" transform="translate(0,0)"/>
<path d="M0 0 C6.73551416 5.61957099 11.53129389 12.27575546 13.203125 21.015625 C14.31361821 35.77237137 9.09024534 45.34342565 0.578125 57.015625 C-4.22230154 63.78082789 -7.07756676 70.74358027 -7.796875 79.015625 C-6.146875 79.345625 -4.496875 79.675625 -2.796875 80.015625 C-2.796875 81.995625 -2.796875 83.975625 -2.796875 86.015625 C-15.006875 86.015625 -27.216875 86.015625 -39.796875 86.015625 C-39.796875 84.035625 -39.796875 82.055625 -39.796875 80.015625 C-37.816875 79.520625 -37.816875 79.520625 -35.796875 79.015625 C-36.291875 78.520625 -36.291875 78.520625 -36.796875 78.015625 C-37.04436756 76.03866635 -37.26942658 74.05888628 -37.484375 72.078125 C-38.67378568 64.06709427 -41.96989704 58.95996143 -46.60546875 52.4921875 C-54.33044299 41.69383641 -57.92712883 32.48494294 -55.796875 19.015625 C-54.33399712 14.59297094 -52.37071878 10.8856491 -49.796875 7.015625 C-49.41402344 6.40332031 -49.03117187 5.79101562 -48.63671875 5.16015625 C-37.33358968 -10.59940364 -14.49644631 -10.28518816 0 0 Z " fill="#A5100F" transform="translate(141.796875,31.984375)"/>
<path d="M0 0 C5.32158846 -0.11496471 10.63885113 -0.21444002 15.96069336 -0.2746582 C17.76976132 -0.2997639 19.57872822 -0.33385595 21.38745117 -0.37719727 C23.99162751 -0.43802579 26.59446031 -0.46624809 29.19921875 -0.48828125 C30.00461594 -0.51408768 30.81001312 -0.5398941 31.63981628 -0.56648254 C35.91593334 -0.56860626 37.51739868 -0.37584358 41.01074219 2.34472656 C43.38282043 5.51099104 43.6467305 7.14330433 43.5625 11.0625 C43.56378906 12.08472656 43.56507812 13.10695312 43.56640625 14.16015625 C42.88195387 17.59185889 41.65280582 18.80075541 39 21 C40.32 22.32 41.64 23.64 43 25 C43 29.95 43 34.9 43 40 C89.86 40 136.72 40 185 40 C185 40.33 185 40.66 185 41 C115.04 41 45.08 41 -27 41 C-27 40.67 -27 40.34 -27 40 C-7.53 40 11.94 40 32 40 C32.36804081 32.86550411 32.36804081 32.86550411 30 27 C28.58672053 26.84379445 27.1664541 26.74943827 25.74609375 26.68359375 C24.46508789 26.62075195 24.46508789 26.62075195 23.15820312 26.55664062 C22.26037109 26.51732422 21.36253906 26.47800781 20.4375 26.4375 C19.08495117 26.37272461 19.08495117 26.37272461 17.70507812 26.30664062 C15.47024844 26.20022016 13.23514514 26.09957519 11 26 C11 28.97 11 31.94 11 35 C7.37 35 3.74 35 0 35 C0 23.45 0 11.9 0 0 Z " fill="#A41B1B" transform="translate(39,152)"/>
<path d="M0 0 C1.07454941 -0.0099852 1.07454941 -0.0099852 2.17080688 -0.02017212 C3.68545976 -0.03028945 5.20015712 -0.03498942 6.71484375 -0.03466797 C9.02419141 -0.03903438 11.33161634 -0.07533979 13.640625 -0.11328125 C15.11457682 -0.11915117 16.58853769 -0.12311939 18.0625 -0.125 C18.74911713 -0.13937103 19.43573425 -0.15374207 20.14315796 -0.16854858 C23.70391523 -0.13487282 25.58551977 0.28539039 28.60864258 2.23095703 C30.6640625 4.3359375 30.6640625 4.3359375 31.15234375 6.4765625 C30.98958333 8.4296875 30.82682292 10.3828125 30.6640625 12.3359375 C27.0340625 12.3359375 23.4040625 12.3359375 19.6640625 12.3359375 C19.3340625 11.3459375 19.0040625 10.3559375 18.6640625 9.3359375 C12.7240625 9.3359375 6.7840625 9.3359375 0.6640625 9.3359375 C0.3340625 10.6559375 0.0040625 11.9759375 -0.3359375 13.3359375 C0.79835693 13.34995605 0.79835693 13.34995605 1.95556641 13.36425781 C5.40071384 13.4181295 8.84452812 13.50174591 12.2890625 13.5859375 C14.07376953 13.60720703 14.07376953 13.60720703 15.89453125 13.62890625 C27.51697623 13.95355555 27.51697623 13.95355555 31.6640625 18.3359375 C32.390625 21.2109375 32.390625 21.2109375 32.2890625 24.3359375 C32.28132813 25.3671875 32.27359375 26.3984375 32.265625 27.4609375 C31.53438355 30.95570183 30.44251984 32.15358555 27.6640625 34.3359375 C22.33136592 36.11350303 16.57085586 35.60120971 10.9855957 35.63110352 C8.73782841 35.64835105 6.49151988 35.69226187 4.24414062 35.73632812 C2.81251079 35.74645298 1.38086848 35.75496973 -0.05078125 35.76171875 C-1.35136475 35.77630127 -2.65194824 35.79088379 -3.99194336 35.8059082 C-7.3359375 35.3359375 -7.3359375 35.3359375 -9.77563477 33.54370117 C-11.96344033 30.44804701 -11.62004685 28.02935907 -11.3359375 24.3359375 C-9.71129908 24.28198272 -8.08615209 24.24316555 -6.4609375 24.2109375 C-5.55601563 24.18773437 -4.65109375 24.16453125 -3.71875 24.140625 C-1.3359375 24.3359375 -1.3359375 24.3359375 0.6640625 26.3359375 C2.69873684 26.61279815 2.69873684 26.61279815 5.015625 26.53125 C5.86640625 26.52480469 6.7171875 26.51835937 7.59375 26.51171875 C8.48320313 26.49496094 9.37265625 26.47820312 10.2890625 26.4609375 C11.18625 26.45191406 12.0834375 26.44289062 13.0078125 26.43359375 C15.22682836 26.4099872 17.44531327 26.3770606 19.6640625 26.3359375 C19.6640625 25.0159375 19.6640625 23.6959375 19.6640625 22.3359375 C18.52191284 22.32191895 18.52191284 22.32191895 17.35668945 22.30761719 C13.8959963 22.25382813 10.43664232 22.17019566 6.9765625 22.0859375 C5.77837891 22.07175781 4.58019531 22.05757812 3.34570312 22.04296875 C1.61030273 21.99462891 1.61030273 21.99462891 -0.16015625 21.9453125 C-1.75476685 21.9138916 -1.75476685 21.9138916 -3.3815918 21.88183594 C-7.0261852 21.20839483 -8.71890012 19.92039034 -11.3359375 17.3359375 C-12.81619969 12.89515094 -13.0396747 8.39301547 -11.5234375 3.9609375 C-8.44303971 -0.25434369 -4.72811763 0.0152362 0 0 Z " fill="#AD0605" transform="translate(116.3359375,151.6640625)"/>
<path d="M0 0 C12.54 0 25.08 0 38 0 C38 2.64 38 5.28 38 8 C29.09 8 20.18 8 11 8 C11 9.98 11 11.96 11 14 C22.88 14 34.76 14 47 14 C47 16.31 47 18.62 47 21 C35.12 21 23.24 21 11 21 C11 22.98 11 24.96 11 27 C20.24 27 29.48 27 39 27 C39 29.64 39 32.28 39 35 C26.13 35 13.26 35 0 35 C0 23.45 0 11.9 0 0 Z " fill="#B10302" transform="translate(154,152)"/>
<path d="M0 0 C0.33 0 0.66 0 1 0 C1.19412181 1.47831221 1.38012131 2.95769316 1.5625 4.4375 C1.66691406 5.26121094 1.77132812 6.08492187 1.87890625 6.93359375 C1.91886719 7.61550781 1.95882812 8.29742187 2 9 C1.67 9.33 1.34 9.66 1 10 C0.95919217 11.99958364 0.95745644 14.00045254 1 16 C4.55955169 16 5.27899173 15.10658705 8 13 C8.66 13 9.32 13 10 13 C10.144375 12.195625 10.28875 11.39125 10.4375 10.5625 C11 8 11 8 12 7 C13.66617115 6.95936168 15.33388095 6.957279 17 7 C16.38125 7.226875 15.7625 7.45375 15.125 7.6875 C12.78500574 8.83106583 12.78500574 8.83106583 12.125 11.375 C11 14 11 14 7.875 15.9375 C4.69532898 17.71691761 4.69532898 17.71691761 4.4375 21 C5.06347005 24.33850694 5.43662839 25.76738602 8 28 C11.26276567 28.86013727 11.26276567 28.86013727 15 29 C15.67933594 29.0515625 16.35867187 29.103125 17.05859375 29.15625 C20.27706812 29.30226774 22.88644319 29.03865764 25.9375 28 C29.0732688 24.95925449 28.78890544 22.29225612 29 18 C29.66 18 30.32 18 31 18 C31.01417969 18.59167969 31.02835938 19.18335937 31.04296875 19.79296875 C31.29198674 25.28046691 31.29198674 25.28046691 34.625 29.5 C35.40875 30.325 36.1925 31.15 37 32 C36.77896984 35.04900513 36.42631432 37.97952954 36 41 C35.81055926 42.89606338 35.63254054 44.79329616 35.46484375 46.69140625 C35.33432617 48.13676758 35.33432617 48.13676758 35.20117188 49.61132812 C35.11416016 50.58521484 35.02714844 51.55910156 34.9375 52.5625 C34.84662109 53.57119141 34.75574219 54.57988281 34.66210938 55.61914062 C34.44057362 58.0793535 34.21988654 60.53963927 34 63 C31.36 63 28.72 63 26 63 C25.95101562 61.91460937 25.90203125 60.82921875 25.8515625 59.7109375 C25.77648014 58.26560216 25.70093472 56.82029081 25.625 55.375 C25.5940625 54.66214844 25.563125 53.94929688 25.53125 53.21484375 C25.2887158 48.80880582 24.53603092 45.17608405 23 41 C22.62468554 38.67305036 22.28082798 36.34023315 22 34 C20.35 34 18.7 34 17 34 C17 35.32 17 36.64 17 38 C17.93585938 38.37898438 17.93585938 38.37898438 18.890625 38.765625 C22.07015955 40.62624152 22.4386007 42.7215407 23.47265625 46.13671875 C24.49981993 51.71383712 24.21682308 57.35456946 24 63 C21.03 63 18.06 63 15 63 C14.92523438 62.17757812 14.85046875 61.35515625 14.7734375 60.5078125 C13.65339585 50.99843929 10.68683179 45.14404608 5.19140625 37.4765625 C-3.11985014 25.85867723 -4.5826645 18.0972439 -4 4 C-2.68 3.34 -1.36 2.68 0 2 C0 1.34 0 0.68 0 0 Z " fill="#A71110" transform="translate(90,47)"/>
<path d="M0 0 C2.875 -0.125 2.875 -0.125 6 0 C8 2 8 2 8.1953125 4.09375 C8.17210938 4.8878125 8.14890625 5.681875 8.125 6.5 C8.10695313 7.2940625 8.08890625 8.088125 8.0703125 8.90625 C8.04710938 9.5971875 8.02390625 10.288125 8 11 C8 11.66 8 12.32 8 13 C8 15.66666667 8 18.33333333 8 21 C6.68 21 5.36 21 4 21 C4.639375 21.12375 5.27875 21.2475 5.9375 21.375 C6.9584375 21.684375 6.9584375 21.684375 8 22 C9.60725635 25.21451269 9.05748185 28.43612536 9 32 C-0.41002278 34.11161731 -0.41002278 34.11161731 -5 35 C-5 36.32 -5 37.64 -5 39 C-4.67 37.68 -4.34 36.36 -4 35 C-3.05125 35.04125 -2.1025 35.0825 -1.125 35.125 C2.10244856 35.34973818 2.10244856 35.34973818 4 33 C6.125 33.375 6.125 33.375 8 34 C8.47863248 40.22222222 8.47863248 40.22222222 6.5 43.4375 C3.00341372 45.62286642 -0.04610051 45.35474238 -4 45 C-5.2375 44.938125 -6.475 44.87625 -7.75 44.8125 C-11 44 -11 44 -13.4375 41.8125 C-15.29983565 38.46029582 -15.72209171 36.77092335 -15 33 C-12.625 30.625 -12.625 30.625 -10 29 C-9.34 29 -8.68 29 -8 29 C-7.67 27.35 -7.34 25.7 -7 24 C-7.20625 24.5775 -7.4125 25.155 -7.625 25.75 C-9.5274665 28.863127 -11.86294893 30.20739939 -15 32 C-15.99 32 -16.98 32 -18 32 C-19 31 -19 31 -19.25 28.125 C-19 25 -19 25 -17.46484375 23.59765625 C-15.75696399 22.08307006 -15.75696399 22.08307006 -15.92578125 19.73828125 C-16.11720703 18.53751953 -16.11720703 18.53751953 -16.3125 17.3125 C-16.43238281 16.50425781 -16.55226563 15.69601563 -16.67578125 14.86328125 C-16.78277344 14.24839844 -16.88976562 13.63351563 -17 13 C-13.75366476 10.8357765 -12.75698557 10.62430144 -9 11 C-8.01 11.66 -7.02 12.32 -6 13 C-6 12.34 -6 11.68 -6 11 C-8.475 10.01 -8.475 10.01 -11 9 C-10.125 5.125 -10.125 5.125 -9 4 C-6.66702567 3.95907063 -4.33294775 3.95758277 -2 4 C-1.34 2.68 -0.68 1.36 0 0 Z " fill="#FBF0EF" transform="translate(109,32)"/>
<path d="M0 0 C0.66 1.32 1.32 2.64 2 4 C3.11375 3.938125 4.2275 3.87625 5.375 3.8125 C7.169375 3.9053125 7.169375 3.9053125 9 4 C11 7 11 7 11 10 C9.35 10.66 7.7 11.32 6 12 C6.99 11.67 7.98 11.34 9 11 C15.69230769 11.69230769 15.69230769 11.69230769 17 13 C17.14636054 16.36629251 17.07193479 18.78419562 16 22 C16.495 22.37125 16.99 22.7425 17.5 23.125 C19.62036754 25.77545942 19.28122499 27.69560641 19 31 C18.67 31.66 18.34 32.32 18 33 C16.65686601 32.35330586 15.32608822 31.68096422 14 31 C13.13375 30.566875 12.2675 30.13375 11.375 29.6875 C8.5940664 27.71157349 7.95745218 26.22052097 7 23 C8 26 8 26 9 29 C11.46326712 30.6446674 11.46326712 30.6446674 14 32 C15 33 15 33 15.375 35.75 C15.00005843 38.99949361 14.50099348 40.80106981 12.03125 43.01953125 C7.20860205 45.34738632 1.25908295 45.41349055 -4 45 C-6.09499102 43.45724511 -6.84317858 42.31364283 -8 40 C-8.039992 38.00039988 -8.04346799 35.99952758 -8 34 C-6.02 33.505 -6.02 33.505 -4 33 C-3.67 34.32 -3.34 35.64 -3 37 C-1.68 37 -0.36 37 1 37 C1 36.34 1 35.68 1 35 C2.32 35.33 3.64 35.66 5 36 C5 35.67 5 35.34 5 35 C4.01 34.814375 4.01 34.814375 3 34.625 C-0.69698583 33.85479462 -4.34005942 32.93049337 -8 32 C-8 29.03 -8 26.06 -8 23 C-6.68 22.67 -5.36 22.34 -4 22 C-5.32 21.67 -6.64 21.34 -8 21 C-8 18.36 -8 15.72 -8 13 C-6.515 13.99 -6.515 13.99 -5 15 C-1.87478167 15.16699232 -1.87478167 15.16699232 1 15 C1.33 13.35 1.66 11.7 2 10 C0.68 9.34 -0.64 8.68 -2 8 C-2.33 8.33 -2.66 8.66 -3 9 C-2.01 9.99 -1.02 10.98 0 12 C-0.66 12.66 -1.32 13.32 -2 14 C-4.93453261 13.63318342 -5.86437246 13.13562754 -8 11 C-8.30078125 8.90625 -8.30078125 8.90625 -8.3125 6.5 C-8.32925781 5.7059375 -8.34601563 4.911875 -8.36328125 4.09375 C-8.18345703 3.05734375 -8.18345703 3.05734375 -8 2 C-4.77208445 -0.1519437 -3.71599191 -0.20086443 0 0 Z " fill="#FCF0EF" transform="translate(130,32)"/>
<path d="M0 0 C1.66611905 -0.042721 3.33382885 -0.04063832 5 0 C6.62160229 1.62160229 6.58881947 3.65847995 7 5.875 C7.52662337 8.69737213 8.0900606 11.27018179 9 14 C9.07051114 16.73865287 9.09357765 19.45027588 9.0625 22.1875 C9.05798828 22.93708984 9.05347656 23.68667969 9.04882812 24.45898438 C9.03706354 26.30602383 9.01912865 28.15302213 9 30 C11.64 30 14.28 30 17 30 C16.95359375 29.07960938 16.9071875 28.15921875 16.859375 27.2109375 C16.58725952 17.66745897 17.85817434 10.1028788 21 1 C22.65 0.67 24.3 0.34 26 0 C26.8125 1.6875 26.8125 1.6875 27 4 C24.625 6.5625 24.625 6.5625 22 9 C21.11360611 11.65918166 20.82010975 13.48064641 20.68359375 16.23046875 C20.64169922 17.03291016 20.59980469 17.83535156 20.55664062 18.66210938 C20.51732422 19.49548828 20.47800781 20.32886719 20.4375 21.1875 C20.39431641 22.03248047 20.35113281 22.87746094 20.30664062 23.74804688 C20.20068482 25.83184433 20.0998498 27.91590103 20 30 C22.31 30 24.62 30 27 30 C27 30.33 27 30.66 27 31 C28.65 31.33 30.3 31.66 32 32 C32 33.98 32 35.96 32 38 C19.79 38 7.58 38 -5 38 C-5 36.02 -5 34.04 -5 32 C-1.09971775 29.39981184 2.47434569 29.84914486 7 30 C6.86301423 18.07162136 6.86301423 18.07162136 3 7 C0.97787468 5.74579193 0.97787468 5.74579193 -1 5 C-0.67 3.35 -0.34 1.7 0 0 Z " fill="#F4CCCC" transform="translate(107,80)"/>
<path d="M0 0 C12.54 0 25.08 0 38 0 C38 2.64 38 5.28 38 8 C29.09 8 20.18 8 11 8 C11 9.98 11 11.96 11 14 C22.88 14 34.76 14 47 14 C47 16.31 47 18.62 47 21 C35.12 21 23.24 21 11 21 C11 22.98 11 24.96 11 27 C20.24 27 29.48 27 39 27 C39 29.64 39 32.28 39 35 C26.13 35 13.26 35 0 35 C0 23.45 0 11.9 0 0 Z M2 1 C2 11.56 2 22.12 2 33 C13.55 33 25.1 33 37 33 C37 31.68 37 30.36 37 29 C24.13 28.505 24.13 28.505 11 28 C10.67 25.03 10.34 22.06 10 19 C21.55 19 33.1 19 45 19 C45 18.01 45 17.02 45 16 C33.78 15.67 22.56 15.34 11 15 C10.67 12.36 10.34 9.72 10 7 C18.91 7 27.82 7 37 7 C37 5.02 37 3.04 37 1 C25.45 1 13.9 1 2 1 Z " fill="#951313" transform="translate(154,152)"/>
<path d="M0 0 C0.99 0.66 1.98 1.32 3 2 C3.328125 5.08203125 3.328125 5.08203125 3.25 8.8125 C3.23453125 10.03582031 3.2190625 11.25914063 3.203125 12.51953125 C3 16 3 16 2.421875 18.82421875 C1.76386695 21.03547694 1.76386695 21.03547694 3 23 C0.22612646 29.96656746 -4.80295502 36.18499907 -9.109375 42.27734375 C-10.96550164 44.81198404 -10.96550164 44.81198404 -12 47 C-12.99 47 -13.98 47 -15 47 C-15.66 51.29 -16.32 55.58 -17 60 C-18.65 60 -20.3 60 -22 60 C-22.3150042 52.34656456 -22.52609107 45.92158617 -19 39 C-18.01 38.34 -17.02 37.68 -16 37 C-15.26393501 33.43230448 -15.26393501 33.43230448 -15 30 C-14.44570312 29.82984375 -13.89140625 29.6596875 -13.3203125 29.484375 C-8.74877023 28.09174014 -8.74877023 28.09174014 -5.5 24.8125 C-5.335 24.214375 -5.17 23.61625 -5 23 C-4.34 23 -3.68 23 -3 23 C-2.75057533 20.58388629 -2.52492499 18.16940879 -2.3125 15.75 C-2.23966797 15.06808594 -2.16683594 14.38617188 -2.09179688 13.68359375 C-1.81829303 10.36937067 -1.75378846 8.41316765 -3.48046875 5.515625 C-4.23263672 4.76539063 -4.23263672 4.76539063 -5 4 C-4.01 3.67 -3.02 3.34 -2 3 C-2 2.34 -2 1.68 -2 1 C-1.34 0.67 -0.68 0.34 0 0 Z " fill="#AE0404" transform="translate(150,49)"/>
<path d="M0 0 C3.63 0 7.26 0 11 0 C11 11.88 11 23.76 11 36 C7.37 36 3.74 36 0 36 C0 24.12 0 12.24 0 0 Z " fill="#B00302" transform="translate(88,151)"/>
<path d="M0 0 C0.66 0 1.32 0 2 0 C2.01417969 0.59167969 2.02835938 1.18335937 2.04296875 1.79296875 C2.29198674 7.28046691 2.29198674 7.28046691 5.625 11.5 C6.40875 12.325 7.1925 13.15 8 14 C7.77896984 17.04900513 7.42631432 19.97952954 7 23 C6.81055926 24.89606338 6.63254054 26.79329616 6.46484375 28.69140625 C6.33432617 30.13676758 6.33432617 30.13676758 6.20117188 31.61132812 C6.0706543 33.0721582 6.0706543 33.0721582 5.9375 34.5625 C5.84662109 35.57119141 5.75574219 36.57988281 5.66210938 37.61914062 C5.44057362 40.0793535 5.21988654 42.53963927 5 45 C2.36 45 -0.28 45 -3 45 C-3.04898438 43.91460937 -3.09796875 42.82921875 -3.1484375 41.7109375 C-3.22351986 40.26560216 -3.29906528 38.82029081 -3.375 37.375 C-3.42140625 36.30572266 -3.42140625 36.30572266 -3.46875 35.21484375 C-3.71175262 30.80029608 -4.51036928 27.19589212 -6 23 C-6.55504725 18.61008088 -6.48064076 15.04867074 -4.625 11 C-3 9 -3 9 -1 8 C-0.53476937 6.10466658 -0.53476937 6.10466658 -0.375 3.9375 C-0.25125 2.638125 -0.1275 1.33875 0 0 Z " fill="#AA0706" transform="translate(119,65)"/>
<path d="M0 0 C1.9375 0.6875 1.9375 0.6875 4 2 C4.875 4.5 4.875 4.5 5 7 C3 9 3 9 0 9.25 C-3 9 -3 9 -5 7 C-5.33 9.31 -5.66 11.62 -6 14 C-3.525 14.495 -3.525 14.495 -1 15 C-1.33 15.66 -1.66 16.32 -2 17 C-2.99 16.67 -3.98 16.34 -5 16 C-5.33 18.97 -5.66 21.94 -6 25 C-5.236875 24.979375 -4.47375 24.95875 -3.6875 24.9375 C-1 25 -1 25 2 26 C3.66362417 26.34820041 5.32995171 26.68404492 7 27 C7.495 29.475 7.495 29.475 8 32 C7.01 32.495 7.01 32.495 6 33 C6 31.68 6 30.36 6 29 C5.01 28.67 4.02 28.34 3 28 C3 28.66 3 29.32 3 30 C1.68 30 0.36 30 -1 30 C-1.33 29.01 -1.66 28.02 -2 27 C-2.99 27 -3.98 27 -5 27 C-5.08065117 30.54865136 -4.94314127 33.58389775 -4 37 C2.08269361 37.19310138 8.2499825 37.27326273 14 35 C16.33458635 31.49812047 16.67260727 30.11971953 16 26 C14.04690112 24.59886384 12.04291182 23.26660533 10 22 C9.29289322 20.35008418 8.62056011 18.68437744 8 17 C5.98264795 15.65589738 5.98264795 15.65589738 4 15 C6.375 14.8125 6.375 14.8125 9 15 C11 18 11 18 11 21 C11.7425 21.268125 12.485 21.53625 13.25 21.8125 C15.86636554 22.94229421 17.80187111 24.20893202 20 26 C19.67 28.31 19.34 30.62 19 33 C18.34 33 17.68 33 17 33 C16.814375 33.78375 16.62875 34.5675 16.4375 35.375 C15 38 15 38 11.375 39.3125 C10.26125 39.539375 9.1475 39.76625 8 40 C7.9175 41.093125 7.835 42.18625 7.75 43.3125 C6.87696173 47.60493818 6.31124278 47.59182343 3 50 C0.37881647 56.34602328 0.38785627 63.21251535 0 70 C1.65 70 3.3 70 5 70 C4.95875 68.783125 4.9175 67.56625 4.875 66.3125 C4.86245492 62.78105873 5.40001783 60.19996434 7 57 C7.66 57 8.32 57 9 57 C8.01 61.62 7.02 66.24 6 71 C3.69 71 1.38 71 -1 71 C-1.08120751 68.10359882 -1.14059421 65.20949088 -1.1875 62.3125 C-1.21263672 61.49587891 -1.23777344 60.67925781 -1.26367188 59.83789062 C-1.32209795 55.02747695 -1.0991987 51.9271709 2 48 C2.556875 47.46375 3.11375 46.9275 3.6875 46.375 C5.34523787 44.95513278 5.34523787 44.95513278 5 42 C3.68 42 2.36 42 1 42 C0.01 45.3 -0.98 48.6 -2 52 C-3.0629626 48.81111219 -2.87920789 47.80358467 -2.25 44.625 C-1.86355476 42.24073862 -1.86355476 42.24073862 -2 40 C-3.6454378 38.31237149 -5.31288577 36.6459651 -7 35 C-7.44441373 31.95628272 -7.29940518 29.05393279 -7 26 C-7.66 26 -8.32 26 -9 26 C-9 28.64 -9 31.28 -9 34 C-9.99 34 -10.98 34 -12 34 C-12 31.69 -12 29.38 -12 27 C-14.38564077 27.57584432 -16.66682784 28.22227595 -19 29 C-21.1875 28.5625 -21.1875 28.5625 -23 28 C-23 29.65 -23 31.3 -23 33 C-23.66 32.67 -24.32 32.34 -25 32 C-24.67 30.35 -24.34 28.7 -24 27 C-23.236875 26.855625 -22.47375 26.71125 -21.6875 26.5625 C-18.91827092 26.0367406 -18.91827092 26.0367406 -16 25 C-13.66700175 24.96045766 -11.33291811 24.95598268 -9 25 C-9 22.36 -9 19.72 -9 17 C-8.67 17 -8.34 17 -8 17 C-7.67 13.04 -7.34 9.08 -7 5 C-4.37886292 5 -2.49064888 5.31292445 0 6 C0.33 5.34 0.66 4.68 1 4 C0.01 3.34 -0.98 2.68 -2 2 C-1.34 1.34 -0.68 0.68 0 0 Z " fill="#921212" transform="translate(128,39)"/>
<path d="M0 0 C53.13 0 106.26 0 161 0 C161 0.66 161 1.32 161 2 C120.41 2 79.82 2 38 2 C38 2.66 38 3.32 38 4 C39.32 4.33 40.64 4.66 42 5 C38.71377082 6.64311459 35.09273349 5.99748737 31.4921875 5.87890625 C30.65156769 5.85529526 29.81094788 5.83168427 28.94485474 5.80735779 C26.2547338 5.73066362 23.5648966 5.64666417 20.875 5.5625 C19.05339939 5.50928506 17.23178486 5.45654463 15.41015625 5.40429688 C10.93992382 5.27504071 6.4699324 5.13923154 2 5 C2 4.67 2 4.34 2 4 C11.24 3.67 20.48 3.34 30 3 C15.15 2.505 15.15 2.505 0 2 C0 1.34 0 0.68 0 0 Z " fill="#B4ADAD" transform="translate(37,147)"/>
<path d="M0 0 C12.21 0 24.42 0 37 0 C37 1.98 37 3.96 37 6 C24.79 6 12.58 6 0 6 C0 4.02 0 2.04 0 0 Z " fill="#404041" transform="translate(102,120)"/>
<path d="M0 0 C12.21 0 24.42 0 37 0 C37 1.98 37 3.96 37 6 C24.79 6 12.58 6 0 6 C0 4.02 0 2.04 0 0 Z " fill="#434143" transform="translate(102,112)"/>
<path d="M0 0 C12.21 0 24.42 0 37 0 C37 1.65 37 3.3 37 5 C36 6 36 6 32.58178711 6.11352539 C31.06363012 6.11336628 29.54546771 6.10767226 28.02734375 6.09765625 C27.22970108 6.0962413 26.43205841 6.09482635 25.61024475 6.09336853 C23.05262565 6.08775316 20.49509282 6.07519812 17.9375 6.0625 C16.20768355 6.05748698 14.47786574 6.05292373 12.74804688 6.04882812 C8.49866447 6.03777875 4.24934688 6.02050386 0 6 C0 4.02 0 2.04 0 0 Z " fill="#414143" transform="translate(102,128)"/>
<path d="M0 0 C2.875 -0.125 2.875 -0.125 6 0 C8.3941161 2.3941161 8.29598923 3.03786311 8.3125 6.3125 C8.21639618 9.14985087 7.91180604 11.30867886 7.125 14.0625 C4.47098241 16.48233957 3.33344169 16.29257954 -0.1875 16.3125 C-1.79303374 16.23210847 -3.39815374 16.1352403 -5 16 C-5.0928125 14.824375 -5.0928125 14.824375 -5.1875 13.625 C-5.455625 12.75875 -5.72375 11.8925 -6 11 C-8.47636012 9.62533375 -8.47636012 9.62533375 -11 9 C-10.125 5.125 -10.125 5.125 -9 4 C-6.66702567 3.95907063 -4.33294775 3.95758277 -2 4 C-1.34 2.68 -0.68 1.36 0 0 Z " fill="#FCEDED" transform="translate(109,32)"/>
<path d="M0 0 C0.99 0.66 1.98 1.32 3 2 C3.40843923 4.71203652 3.13336867 7.2437142 3 10 C-0.63 10 -4.26 10 -8 10 C-8.33 9.01 -8.66 8.02 -9 7 C-14.94 7 -20.88 7 -27 7 C-27.33 8.32 -27.66 9.64 -28 11 C-26.86570557 11.01401855 -26.86570557 11.01401855 -25.70849609 11.02832031 C-22.26334866 11.082192 -18.81953438 11.16580841 -15.375 11.25 C-13.59029297 11.27126953 -13.59029297 11.27126953 -11.76953125 11.29296875 C-0.14708627 11.61761805 -0.14708627 11.61761805 4 16 C4.7265625 18.875 4.7265625 18.875 4.625 22 C4.61726563 23.03125 4.60953125 24.0625 4.6015625 25.125 C3.87032105 28.61976433 2.77845734 29.81764805 0 32 C-5.34825637 33.78275212 -11.13157051 33.26526519 -16.73339844 33.29516602 C-18.9921454 33.31243993 -21.24945057 33.35635503 -23.5078125 33.40039062 C-24.94269759 33.41051308 -26.37759509 33.41903058 -27.8125 33.42578125 C-29.11832031 33.44036377 -30.42414063 33.45494629 -31.76953125 33.4699707 C-35 33 -35 33 -36.94921875 30.97338867 C-37.29597656 30.32217041 -37.64273438 29.67095215 -38 29 C-37.3294458 29.32597168 -36.6588916 29.65194336 -35.96801758 29.98779297 C-32.33630918 31.22634385 -29.347394 31.22587565 -25.51171875 31.1953125 C-24.80852005 31.1924826 -24.10532135 31.18965271 -23.3808136 31.18673706 C-21.14953108 31.17560151 -18.91865983 31.15050997 -16.6875 31.125 C-15.16862562 31.1149616 -13.6497449 31.10583726 -12.13085938 31.09765625 C-8.42044079 31.07568413 -4.71026058 31.04120047 -1 31 C-1 30.34 -1 29.68 -1 29 C-0.34 29 0.32 29 1 29 C1 28.34 1 27.68 1 27 C1.66 27 2.32 27 3 27 C2.34 23.04 1.68 19.08 1 15 C-0.29417847 14.98598145 -0.29417847 14.98598145 -1.61450195 14.97167969 C-4.8186184 14.92764278 -8.02177728 14.86602106 -11.2253418 14.79248047 C-12.61128396 14.76427203 -13.99738696 14.74305667 -15.38354492 14.72900391 C-17.37707404 14.70757579 -19.37025046 14.65882986 -21.36328125 14.609375 C-22.56251221 14.58842773 -23.76174316 14.56748047 -24.99731445 14.54589844 C-28 14 -28 14 -29.92651367 12.09472656 C-31 10 -31 10 -30.8125 7.875 C-30 6 -30 6 -28 4 C-25.93701172 3.86474609 -25.93701172 3.86474609 -23.4296875 4.0234375 C-22.08583984 4.10078125 -22.08583984 4.10078125 -20.71484375 4.1796875 C-19.77769531 4.24414062 -18.84054688 4.30859375 -17.875 4.375 C-16.93011719 4.43171875 -15.98523438 4.4884375 -15.01171875 4.546875 C-12.67373519 4.68857097 -10.33679056 4.83999783 -8 5 C-7.67 6.32 -7.34 7.64 -7 9 C-4.36 9 -1.72 9 1 9 C0.505 4.545 0.505 4.545 0 0 Z " fill="#951A19" transform="translate(144,154)"/>
<path d="M0 0 C0.69762451 0.4844458 1.39524902 0.9688916 2.11401367 1.46801758 C5.39283972 3.20853305 7.48668818 3.42085439 11.17578125 3.51171875 C12.91118164 3.56489258 12.91118164 3.56489258 14.68164062 3.61914062 C15.87982422 3.64169922 17.07800781 3.66425781 18.3125 3.6875 C19.53001953 3.72166016 20.74753906 3.75582031 22.00195312 3.79101562 C25.00121014 3.87334817 28.00018014 3.94254921 31 4 C31.66 5.32 32.32 6.64 33 8 C30.59170208 10.40829792 30.00716444 10.25602579 26.71875 10.265625 C25.87699219 10.26820313 25.03523438 10.27078125 24.16796875 10.2734375 C22.84732422 10.26183594 22.84732422 10.26183594 21.5 10.25 C20.61957031 10.25773438 19.73914063 10.26546875 18.83203125 10.2734375 C17.99027344 10.27085937 17.14851563 10.26828125 16.28125 10.265625 C15.50845703 10.26336914 14.73566406 10.26111328 13.93945312 10.25878906 C12 10 12 10 10 8 C7.56747339 7.53837573 7.56747339 7.53837573 4.875 7.375 C3.96492188 7.30023438 3.05484375 7.22546875 2.1171875 7.1484375 C1.41851562 7.09945312 0.71984375 7.05046875 0 7 C0.58174845 12.3086849 0.58174845 12.3086849 3 17 C2.34 17.33 1.68 17.66 1 18 C1 17.34 1 16.68 1 16 C0.34 16 -0.32 16 -1 16 C-2.39661388 11.81015835 -2.78362472 7.81213217 -1 3.6875 C-0.67 3.130625 -0.34 2.57375 0 2 C0 1.34 0 0.68 0 0 Z " fill="#F6DBDA" transform="translate(105,169)"/>
<path d="M0 0 C3.10439786 -0.0538854 6.20786307 -0.09361739 9.3125 -0.125 C10.19357422 -0.14175781 11.07464844 -0.15851563 11.98242188 -0.17578125 C12.82998047 -0.18222656 13.67753906 -0.18867188 14.55078125 -0.1953125 C15.72120972 -0.21102295 15.72120972 -0.21102295 16.9152832 -0.22705078 C19 0 19 0 22 2 C22.375 4.5 22.375 4.5 22 7 C18.84685215 9.10209857 18.13896919 9.2434761 14.55078125 9.1953125 C13.27944336 9.18564453 13.27944336 9.18564453 11.98242188 9.17578125 C11.10134766 9.15902344 10.22027344 9.14226562 9.3125 9.125 C8.41982422 9.11597656 7.52714844 9.10695312 6.60742188 9.09765625 C4.40483334 9.07409915 2.20238275 9.03822844 0 9 C0 6.03 0 3.06 0 0 Z " fill="#F8D1D0" transform="translate(50,160)"/>
<path d="M0 0 C11.22 0 22.44 0 34 0 C34 1.65 34 3.3 34 5 C32.35 5 30.7 5 29 5 C29 5.66 29 6.32 29 7 C25.14354879 7.22036864 22.50776784 6.60355101 19 5 C19 5.66 19 6.32 19 7 C15.37 7 11.74 7 8 7 C8 5.35 8 3.7 8 2 C7.01 2 6.02 2 5 2 C5 3.65 5 5.3 5 7 C4.34 7 3.68 7 3 7 C3 5.02 3 3.04 3 1 C2.01 0.67 1.02 0.34 0 0 Z " fill="#989898" transform="translate(96,208)"/>
<path d="M0 0 C1.9375 0.6875 1.9375 0.6875 4 2 C4.875 4.5 4.875 4.5 5 7 C3 9 3 9 0 9.25 C-3 9 -3 9 -5 7 C-5.33 9.31 -5.66 11.62 -6 14 C-3.525 14.495 -3.525 14.495 -1 15 C-1.33 15.66 -1.66 16.32 -2 17 C-2.99 16.67 -3.98 16.34 -5 16 C-5.33 18.97 -5.66 21.94 -6 25 C-5.236875 24.979375 -4.47375 24.95875 -3.6875 24.9375 C-1 25 -1 25 2 26 C3.66362417 26.34820041 5.32995171 26.68404492 7 27 C7.495 29.475 7.495 29.475 8 32 C7.01 32.495 7.01 32.495 6 33 C6 31.68 6 30.36 6 29 C5.01 28.67 4.02 28.34 3 28 C3 28.66 3 29.32 3 30 C1.68 30 0.36 30 -1 30 C-1.33 29.01 -1.66 28.02 -2 27 C-2.99 27 -3.98 27 -5 27 C-5.33 29.64 -5.66 32.28 -6 35 C-6.33 35 -6.66 35 -7 35 C-7 32.03 -7 29.06 -7 26 C-7.66 26 -8.32 26 -9 26 C-9 28.64 -9 31.28 -9 34 C-9.99 34 -10.98 34 -12 34 C-12 31.69 -12 29.38 -12 27 C-14.38564077 27.57584432 -16.66682784 28.22227595 -19 29 C-21.1875 28.5625 -21.1875 28.5625 -23 28 C-23 29.65 -23 31.3 -23 33 C-23.66 32.67 -24.32 32.34 -25 32 C-24.67 30.35 -24.34 28.7 -24 27 C-23.236875 26.855625 -22.47375 26.71125 -21.6875 26.5625 C-18.91827092 26.0367406 -18.91827092 26.0367406 -16 25 C-13.66700175 24.96045766 -11.33291811 24.95598268 -9 25 C-9 22.36 -9 19.72 -9 17 C-8.67 17 -8.34 17 -8 17 C-7.67 13.04 -7.34 9.08 -7 5 C-4.37886292 5 -2.49064888 5.31292445 0 6 C0.33 5.34 0.66 4.68 1 4 C0.01 3.34 -0.98 2.68 -2 2 C-1.34 1.34 -0.68 0.68 0 0 Z " fill="#974B4B" transform="translate(128,39)"/>
<path d="M0 0 C9.57 0 19.14 0 29 0 C29 0.33 29 0.66 29 1 C27.35 1 25.7 1 24 1 C24 1.66 24 2.32 24 3 C25.65 3 27.3 3 29 3 C29 4.32 29 5.64 29 7 C21.33333333 7 13.66666667 7 6 7 C6 6.34 6 5.68 6 5 C4.02 5.33 2.04 5.66 0 6 C0 4.02 0 2.04 0 0 Z " fill="#7D7D7D" transform="translate(132,208)"/>
<path d="M0 0 C0.74362793 0.01047363 1.48725586 0.02094727 2.25341797 0.03173828 C3.46191406 0.04140625 3.46191406 0.04140625 4.69482422 0.05126953 C5.95746094 0.07640625 5.95746094 0.07640625 7.24560547 0.10205078 C8.51984375 0.11558594 8.51984375 0.11558594 9.81982422 0.12939453 C11.9202043 0.15299431 14.02043991 0.18886595 16.12060547 0.22705078 C16.45060547 1.54705078 16.78060547 2.86705078 17.12060547 4.22705078 C20.75060547 4.22705078 24.38060547 4.22705078 28.12060547 4.22705078 C27.13060547 4.72205078 27.13060547 4.72205078 26.12060547 5.22705078 C26.45060547 6.21705078 26.78060547 7.20705078 27.12060547 8.22705078 C26.5859668 8.06857666 26.05132812 7.91010254 25.50048828 7.74682617 C22.65356515 7.12504741 19.9553339 7.01059538 17.04248047 6.91064453 C15.88232422 6.86875 14.72216797 6.82685547 13.52685547 6.78369141 C12.32029297 6.744375 11.11373047 6.70505859 9.87060547 6.66455078 C8.03755859 6.59977539 8.03755859 6.59977539 6.16748047 6.53369141 C3.15196627 6.42767724 0.13637099 6.32561142 -2.87939453 6.22705078 C-3.50439453 4.35205078 -3.50439453 4.35205078 -3.87939453 2.22705078 C-1.87939453 0.22705078 -1.87939453 0.22705078 0 0 Z " fill="#F8D5D5" transform="translate(118.87939453125,159.77294921875)"/>
<path d="M0 0 C5.3753748 -0.04585628 10.75007388 -0.0856976 16.12548828 -0.10986328 C17.95493873 -0.11993484 19.78437303 -0.13359276 21.61376953 -0.15087891 C24.23994934 -0.17507677 26.86591675 -0.18647132 29.4921875 -0.1953125 C30.72350906 -0.21079636 30.72350906 -0.21079636 31.97970581 -0.22659302 C33.98789142 -0.22699184 35.99555382 -0.1224954 38 0 C38.66 0.66 39.32 1.32 40 2 C36.3477346 2 32.7011123 1.88769808 29.05078125 1.78125 C28.27816452 1.75905396 27.50554779 1.73685791 26.70951843 1.71398926 C24.24383384 1.64306166 21.77816694 1.57153819 19.3125 1.5 C17.63997509 1.45178365 15.96744906 1.4036061 14.29492188 1.35546875 C10.19659918 1.23750214 6.09830094 1.11872988 2 1 C2 11.56 2 22.12 2 33 C4.97 32.505 4.97 32.505 8 32 C8.33 30.02 8.66 28.04 9 26 C9.66 26 10.32 26 11 26 C11 28.97 11 31.94 11 35 C7.37 35 3.74 35 0 35 C0 23.45 0 11.9 0 0 Z " fill="#8B1C1C" transform="translate(39,152)"/>
<path d="M0 0 C3.63 0 7.26 0 11 0 C11 11.88 11 23.76 11 36 C7.37 36 3.74 36 0 36 C0 24.12 0 12.24 0 0 Z M1 2 C1 12.56 1 23.12 1 34 C3.64 34 6.28 34 9 34 C9.02465504 29.60343827 9.04283842 25.2069128 9.05493164 20.81030273 C9.05997121 19.31355082 9.06680287 17.81680384 9.07543945 16.32006836 C9.08752159 14.17300193 9.09323191 12.02600038 9.09765625 9.87890625 C9.10289307 8.5854126 9.10812988 7.29191895 9.11352539 5.95922852 C9.33996932 3.11347596 9.33996932 3.11347596 8 2 C5.69 2 3.38 2 1 2 Z " fill="#9C3030" transform="translate(88,151)"/>
<path d="M0 0 C4.41654255 -0.08706286 8.83286457 -0.14041378 13.25 -0.1875 C14.50425781 -0.21263672 15.75851563 -0.23777344 17.05078125 -0.26367188 C18.85869141 -0.27817383 18.85869141 -0.27817383 20.703125 -0.29296875 C22.36843262 -0.31653442 22.36843262 -0.31653442 24.06738281 -0.34057617 C27.29964043 0.0347984 28.63907032 0.82241911 31 3 C30.25 7.75 30.25 7.75 28 10 C24.97626541 10.2561982 22.0879759 10.37961332 19.0625 10.375 C18.20744873 10.37628906 17.35239746 10.37757813 16.47143555 10.37890625 C9.73091016 10.26668106 4.06742476 9.05416437 -2 6 C-2 7.98 -2 9.96 -2 12 C-2.33 12 -2.66 12 -3 12 C-3 9.69 -3 7.38 -3 5 C-1.37536158 4.94604522 0.24978541 4.90722805 1.875 4.875 C2.77992187 4.85179687 3.68484375 4.82859375 4.6171875 4.8046875 C7 5 7 5 9 7 C11.03467434 7.27686065 11.03467434 7.27686065 13.3515625 7.1953125 C14.20234375 7.18886719 15.053125 7.18242187 15.9296875 7.17578125 C16.81914063 7.15902344 17.70859375 7.14226562 18.625 7.125 C19.5221875 7.11597656 20.419375 7.10695312 21.34375 7.09765625 C23.56276586 7.0740497 25.78125077 7.0411231 28 7 C28 5.68 28 4.36 28 3 C27.22285645 2.98018066 26.44571289 2.96036133 25.64501953 2.93994141 C22.13799309 2.84492991 18.63158206 2.73515441 15.125 2.625 C13.90167969 2.5940625 12.67835937 2.563125 11.41796875 2.53125 C10.25136719 2.49257812 9.08476563 2.45390625 7.8828125 2.4140625 C6.80402832 2.3826416 5.72524414 2.3512207 4.61376953 2.31884766 C2 2 2 2 0 0 Z " fill="#991212" transform="translate(108,171)"/>
<path d="M0 0 C0.66 0.33 1.32 0.66 2 1 C-2.455 3.97 -2.455 3.97 -7 7 C-4.69 7 -2.38 7 0 7 C0 7.66 0 8.32 0 9 C-2.31 9.33 -4.62 9.66 -7 10 C-7.33 11.32 -7.66 12.64 -8 14 C-7.360625 14.2475 -6.72125 14.495 -6.0625 14.75 C-4 16 -4 16 -3.25 18.125 C-3.12625 19.053125 -3.12625 19.053125 -3 20 C-3.515625 19.484375 -4.03125 18.96875 -4.5625 18.4375 C-7.9710271 16.42734299 -10.23106857 17.20272604 -14 18 C-14 18.9075 -14 19.815 -14 20.75 C-14 23.16666667 -14 25.58333333 -14 28 C-14.66 28 -15.32 28 -16 28 C-16.33 26.02 -16.66 24.04 -17 22 C-17.99 22.33 -18.98 22.66 -20 23 C-17.61837406 13.71165884 -12.05383614 6.97251017 -4 2 C-1.8828125 0.77734375 -1.8828125 0.77734375 0 0 Z " fill="#941F1E" transform="translate(107,27)"/>
<path d="M0 0 C1.32 0.99 2.64 1.98 4 3 C4.29642569 5.71229503 4.38061189 7.99739732 4.25 10.6875 C4.23195312 11.38939453 4.21390625 12.09128906 4.1953125 12.81445312 C4.14826213 14.54355436 4.07651873 16.27195205 4 18 C0.37 18 -3.26 18 -7 18 C-7.06058594 17.14535156 -7.12117188 16.29070312 -7.18359375 15.41015625 C-7.30927734 13.75306641 -7.30927734 13.75306641 -7.4375 12.0625 C-7.51871094 10.96035156 -7.59992188 9.85820312 -7.68359375 8.72265625 C-7.70418084 6.08890097 -7.70418084 6.08890097 -9 5 C-10.41327947 4.84379445 -11.8335459 4.74943827 -13.25390625 4.68359375 C-14.10791016 4.64169922 -14.96191406 4.59980469 -15.84179688 4.55664062 C-16.73962891 4.51732422 -17.63746094 4.47800781 -18.5625 4.4375 C-19.46419922 4.39431641 -20.36589844 4.35113281 -21.29492188 4.30664062 C-23.52978485 4.20021858 -25.76476308 4.09820012 -28 4 C-28 3.67 -28 3.34 -28 3 C-23.22092793 2.26475814 -18.52387994 1.8675305 -13.6875 1.75 C-12.68074219 1.72421875 -11.67398438 1.6984375 -10.63671875 1.671875 C-8 2 -8 2 -6.15625 3.16015625 C-4.5333793 5.74249442 -4.70585858 7.66599307 -4.8125 10.6875 C-4.83957031 11.68136719 -4.86664063 12.67523438 -4.89453125 13.69921875 C-4.92933594 14.45847656 -4.96414062 15.21773437 -5 16 C-1.535 15.505 -1.535 15.505 2 15 C1.34 10.05 0.68 5.1 0 0 Z " fill="#9B1E1E" transform="translate(78,174)"/>
<path d="M0 0 C6.6 0 13.2 0 20 0 C18 5 18 5 15 7 C11.2830586 7.53909837 7.71500707 7.56170017 4 7 C1.3125 4.625 1.3125 4.625 0 2 C0 1.34 0 0.68 0 0 Z " fill="#434344" transform="translate(110,136)"/>
<path d="M0 0 C4.79132738 4.10685204 7.83401868 9.80429533 9 16 C9.37433084 22.25045452 9.58902621 28.17469103 7 34 C6.34 33.67 5.68 33.34 5 33 C5.16371094 32.32582031 5.32742187 31.65164062 5.49609375 30.95703125 C6.0875358 27.48632094 6.09539046 24.20677876 6.0625 20.6875 C6.05347656 19.43324219 6.04445312 18.17898437 6.03515625 16.88671875 C6.02355469 15.93410156 6.01195312 14.98148438 6 14 C4.68 13.67 3.36 13.34 2 13 C2 13.66 2 14.32 2 15 C1.34 14.67 0.68 14.34 0 14 C0 12.02 0 10.04 0 8 C-4.89895217 6.81503452 -4.89895217 6.81503452 -9.4375 8.4375 C-9.953125 8.953125 -10.46875 9.46875 -11 10 C-10.67 8.68 -10.34 7.36 -10 6 C-9.195625 5.87625 -8.39125 5.7525 -7.5625 5.625 C-6.716875 5.41875 -5.87125 5.2125 -5 5 C-4.67 4.34 -4.34 3.68 -4 3 C-2.02 4.32 -0.04 5.64 2 7 C1.34 4.69 0.68 2.38 0 0 Z " fill="#9A1413" transform="translate(146,37)"/>
<path d="M0 0 C0.66 0 1.32 0 2 0 C2 0.66 2 1.32 2 2 C2.66 2 3.32 2 4 2 C4.99170242 8.28812795 4.96350147 14.15772381 4.5625 20.5 C4.51029297 21.4178125 4.45808594 22.335625 4.40429688 23.28125 C4.2759611 25.52129261 4.14107403 27.76072975 4 30 C3.01 30 2.02 30 1 30 C0.67 26.7 0.34 23.4 0 20 C-1.32 20.33 -2.64 20.66 -4 21 C-4 20.34 -4 19.68 -4 19 C-2.68 19 -1.36 19 0 19 C-0.165 17.906875 -0.33 16.81375 -0.5 15.6875 C-1.03824421 11.71794899 -0.9580364 8.26306395 -0.5 4.3125 C-0.4071875 3.50425781 -0.314375 2.69601563 -0.21875 1.86328125 C-0.1465625 1.24839844 -0.074375 0.63351563 0 0 Z " fill="#9A1D1C" transform="translate(117,34)"/>
<path d="M0 0 C5.28 0 10.56 0 16 0 C16.33 0.66 16.66 1.32 17 2 C14.03 1.505 14.03 1.505 11 1 C11 1.66 11 2.32 11 3 C12.98 3 14.96 3 17 3 C16.67 4.32 16.34 5.64 16 7 C10.72 7 5.44 7 0 7 C0 4.69 0 2.38 0 0 Z " fill="#C8C8C9" transform="translate(208,198)"/>
<path d="M0 0 C0.66 0 1.32 0 2 0 C2.95751981 3.53545775 3.52395206 5.74206337 2.09375 9.17578125 C-0.17109873 12.95283081 -1.7955985 15.39990422 -6 17 C-8.57534673 17.16786322 -11.03754393 17.23317374 -13.609375 17.1953125 C-14.33618469 17.1924826 -15.06299438 17.18965271 -15.81182861 17.18673706 C-18.12472251 17.17557523 -20.43722388 17.15047851 -22.75 17.125 C-24.32160898 17.11496501 -25.89322404 17.10584006 -27.46484375 17.09765625 C-31.31004622 17.07564904 -35.15495664 17.04114715 -39 17 C-39 16.34 -39 15.68 -39 15 C-38.05680908 14.98541748 -37.11361816 14.97083496 -36.1418457 14.95581055 C-32.62841339 14.89460394 -29.11574554 14.82042492 -25.6027832 14.73754883 C-24.08498379 14.70438084 -22.56706344 14.67632368 -21.04907227 14.65356445 C-18.86161981 14.61986722 -16.67526736 14.56754796 -14.48828125 14.51171875 C-13.17384033 14.48553467 -11.85939941 14.45935059 -10.50512695 14.43237305 C-6.55216831 13.94475796 -3.83784124 12.83784124 -1 10 C-0.76712992 8.31816052 -0.58735834 6.6287584 -0.4375 4.9375 C-0.35371094 4.01839844 -0.26992187 3.09929687 -0.18359375 2.15234375 C-0.09271484 1.08693359 -0.09271484 1.08693359 0 0 Z " fill="#FFDCDC" transform="translate(148,172)"/>
<path d="M0 0 C4.875 0.875 4.875 0.875 6 2 C6.33 1.34 6.66 0.68 7 0 C10.63 0 14.26 0 18 0 C18 0.66 18 1.32 18 2 C17.34 2 16.68 2 16 2 C16 3.65 16 5.3 16 7 C15.01 7 14.02 7 13 7 C13 5.35 13 3.7 13 2 C12.01 2 11.02 2 10 2 C10 3.65 10 5.3 10 7 C5.25 6.125 5.25 6.125 3 5 C3 5.66 3 6.32 3 7 C2.01 7 1.02 7 0 7 C0 4.69 0 2.38 0 0 Z " fill="#6A6A6A" transform="translate(59,198)"/>
<path d="M0 0 C0.69762451 0.4844458 1.39524902 0.9688916 2.11401367 1.46801758 C5.39283972 3.20853305 7.48668818 3.42085439 11.17578125 3.51171875 C12.91118164 3.56489258 12.91118164 3.56489258 14.68164062 3.61914062 C15.87982422 3.64169922 17.07800781 3.66425781 18.3125 3.6875 C19.53001953 3.72166016 20.74753906 3.75582031 22.00195312 3.79101562 C25.00121014 3.87334817 28.00018014 3.94254921 31 4 C31 4.33 31 4.66 31 5 C30.15236084 5.029729 30.15236084 5.029729 29.28759766 5.06005859 C26.73292003 5.15518236 24.17907459 5.26491058 21.625 5.375 C20.73554687 5.4059375 19.84609375 5.436875 18.9296875 5.46875 C18.07890625 5.50742188 17.228125 5.54609375 16.3515625 5.5859375 C15.17327881 5.63306885 15.17327881 5.63306885 13.97119141 5.68115234 C11.76997061 5.8399465 11.76997061 5.8399465 10 8 C7.6171875 7.9765625 7.6171875 7.9765625 4.875 7.625 C3.96492188 7.51414063 3.05484375 7.40328125 2.1171875 7.2890625 C1.06917969 7.14597656 1.06917969 7.14597656 0 7 C0.58174845 12.3086849 0.58174845 12.3086849 3 17 C2.34 17.33 1.68 17.66 1 18 C1 17.34 1 16.68 1 16 C0.34 16 -0.32 16 -1 16 C-2.39661388 11.81015835 -2.78362472 7.81213217 -1 3.6875 C-0.67 3.130625 -0.34 2.57375 0 2 C0 1.34 0 0.68 0 0 Z " fill="#F0C4C3" transform="translate(105,169)"/>
<path d="M0 0 C0.70189453 0.00451172 1.40378906 0.00902344 2.12695312 0.01367188 C3.85550538 0.02543073 5.58401365 0.04336546 7.3125 0.0625 C7.3125 1.7125 7.3125 3.3625 7.3125 5.0625 C1.3725 5.0625 -4.5675 5.0625 -10.6875 5.0625 C-10.6875 3.7425 -10.6875 2.4225 -10.6875 1.0625 C-7.06882441 -0.1437252 -3.76243749 -0.04566918 0 0 Z " fill="#FEFCFB" transform="translate(61.6875,161.9375)"/>
<path d="M0 0 C0.66 0 1.32 0 2 0 C2 0.66 2 1.32 2 2 C2.66 2 3.32 2 4 2 C7.74177733 12.50704437 10.12256228 22.03216775 6.05859375 32.78515625 C4.14812829 36.78232938 1.8713319 40.61678721 -1 44 C-1.66 44 -2.32 44 -3 44 C-1.93490333 41.85494484 -0.85429921 39.72085363 0.25390625 37.59765625 C0.68574219 36.76105469 1.11757812 35.92445312 1.5625 35.0625 C1.99691406 34.22847656 2.43132812 33.39445312 2.87890625 32.53515625 C5.8869937 25.73289577 6.24634271 17.20357405 4.140625 10.1015625 C3.16566609 7.69242491 2.10993119 5.34913148 1 3 C0.67 2.01 0.34 1.02 0 0 Z " fill="#FCE6E6" transform="translate(149,40)"/>
<path d="M0 0 C2.31 0 4.62 0 7 0 C7 0.33 7 0.66 7 1 C5.35 1 3.7 1 2 1 C2 1.66 2 2.32 2 3 C3.65 3 5.3 3 7 3 C7.33 3.66 7.66 4.32 8 5 C8.33 3.35 8.66 1.7 9 0 C11.31 0 13.62 0 16 0 C16.33 0.66 16.66 1.32 17 2 C15.02 2 13.04 2 11 2 C11 2.99 11 3.98 11 5 C12.98 4.67 14.96 4.34 17 4 C17 4.99 17 5.98 17 7 C11.39 7 5.78 7 0 7 C0 4.69 0 2.38 0 0 Z " fill="#696969" transform="translate(102,198)"/>
<path d="M0 0 C0.99 0.66 1.98 1.32 3 2 C3.29296875 5.2578125 3.29296875 5.2578125 3.1875 9.125 C3.16042969 10.40632813 3.13335937 11.68765625 3.10546875 13.0078125 C3.07066406 13.99523438 3.03585938 14.98265625 3 16 C1.35 16.33 -0.3 16.66 -2 17 C-1.96519531 16.39671875 -1.93039063 15.7934375 -1.89453125 15.171875 C-1.6485551 10.07474512 -1.6485551 10.07474512 -3.5 5.4375 C-3.995 4.963125 -4.49 4.48875 -5 4 C-4.01 3.67 -3.02 3.34 -2 3 C-2 2.34 -2 1.68 -2 1 C-1.34 0.67 -0.68 0.34 0 0 Z " fill="#A50E0E" transform="translate(150,49)"/>
<path d="M0 0 C3.63 0 7.26 0 11 0 C11 1.98 11 3.96 11 6 C12.32 6 13.64 6 15 6 C15 4.35 15 2.7 15 1 C15.66 1 16.32 1 17 1 C17.04254356 2.99954746 17.04080783 5.00041636 17 7 C16 8 16 8 12.4375 8.0625 C11.303125 8.041875 10.16875 8.02125 9 8 C8.67 6.35 8.34 4.7 8 3 C7.01 3 6.02 3 5 3 C5 4.65 5 6.3 5 8 C4.34 8 3.68 8 3 8 C3 6.02 3 4.04 3 2 C2.01 2 1.02 2 0 2 C0 1.34 0 0.68 0 0 Z " fill="#8D8D8C" transform="translate(120,197)"/>
<path d="M0 0 C1.9375 0.6875 1.9375 0.6875 4 2 C4.875 4.5 4.875 4.5 5 7 C3 9 3 9 0 9.25 C-3 9 -3 9 -5 7 C-5.33 9.31 -5.66 11.62 -6 14 C-4.35 14.33 -2.7 14.66 -1 15 C-1.33 15.66 -1.66 16.32 -2 17 C-2.99 16.67 -3.98 16.34 -5 16 C-5.33 18.97 -5.66 21.94 -6 25 C-6.33 25 -6.66 25 -7 25 C-7 18.4 -7 11.8 -7 5 C-4.37886292 5 -2.49064888 5.31292445 0 6 C0.33 5.34 0.66 4.68 1 4 C0.01 3.34 -0.98 2.68 -2 2 C-1.34 1.34 -0.68 0.68 0 0 Z " fill="#A65C5B" transform="translate(128,39)"/>
<path d="M0 0 C2.05078125 0.03255208 4.1015625 0.06510417 6.15234375 0.09765625 C6.15234375 1.74765625 6.15234375 3.39765625 6.15234375 5.09765625 C4.50234375 5.09765625 2.85234375 5.09765625 1.15234375 5.09765625 C1.15234375 5.75765625 1.15234375 6.41765625 1.15234375 7.09765625 C-2.70410746 7.31802489 -5.33988841 6.70120726 -8.84765625 5.09765625 C-8.84765625 3.77765625 -8.84765625 2.45765625 -8.84765625 1.09765625 C-7.39359375 1.12859375 -7.39359375 1.12859375 -5.91015625 1.16015625 C-2.67139686 1.09405912 -2.77992149 0.14693031 0 0 Z " fill="#B1B1B1" transform="translate(123.84765625,207.90234375)"/>
<path d="M0 0 C0.33 0 0.66 0 1 0 C1 10.56 1 21.12 1 32 C2.98 31.67 4.96 31.34 7 31 C7.33 29.02 7.66 27.04 8 25 C8.66 25 9.32 25 10 25 C10 27.97 10 30.94 10 34 C6.7 34 3.4 34 0 34 C0 22.78 0 11.56 0 0 Z " fill="#950C0C" transform="translate(40,153)"/>
<path d="M0 0 C2.375 -0.1875 2.375 -0.1875 5 0 C7 3 7 3 7 6 C7.7425 6.268125 8.485 6.53625 9.25 6.8125 C11.86636554 7.94229421 13.80187111 9.20893202 16 11 C15.67 13.31 15.34 15.62 15 18 C14.34 18 13.68 18 13 18 C12.566875 19.2065625 12.566875 19.2065625 12.125 20.4375 C11 23 11 23 9 24 C6 24.1875 6 24.1875 3 24 C2.34 23.34 1.68 22.68 1 22 C1.62648437 21.89042969 2.25296875 21.78085938 2.8984375 21.66796875 C3.71570313 21.50941406 4.53296875 21.35085937 5.375 21.1875 C6.18710938 21.03667969 6.99921875 20.88585937 7.8359375 20.73046875 C10.35820641 20.12455058 10.35820641 20.12455058 12 17 C12.66680368 14.04279372 12.66680368 14.04279372 12 11 C10.04690112 9.59886384 8.04291182 8.26660533 6 7 C5.29289322 5.35008418 4.62056011 3.68437744 4 2 C1.98264795 0.65589738 1.98264795 0.65589738 0 0 Z " fill="#963A3A" transform="translate(132,54)"/>
<path d="M0 0 C0.90878906 0.2165625 0.90878906 0.2165625 1.8359375 0.4375 C7.98654607 1.80009636 13.71013545 2.24088843 20 2 C19.34 3.65 18.68 5.3 18 7 C16.02 7 14.04 7 12 7 C12 8.32 12 9.64 12 11 C13.32 11.66 14.64 12.32 16 13 C15.34 13.66 14.68 14.32 14 15 C14 14.34 14 13.68 14 13 C12.68 12.67 11.36 12.34 10 12 C9.875 6.25 9.875 6.25 11 4 C9.9275 4.04125 8.855 4.0825 7.75 4.125 C4.34252515 4.0114175 2.79260369 3.78726636 0 2 C0 1.34 0 0.68 0 0 Z " fill="#941615" transform="translate(95,74)"/>
<path d="M0 0 C0.33 0.99 0.66 1.98 1 3 C1.9075 2.79375 2.815 2.5875 3.75 2.375 C7.11740302 1.9864535 8.35577701 1.94338212 11 4 C11.75 6.125 11.75 6.125 12 8 C11.484375 7.484375 10.96875 6.96875 10.4375 6.4375 C7.0289729 4.42734299 4.76893143 5.20272604 1 6 C1 6.9075 1 7.815 1 8.75 C1 11.16666667 1 13.58333333 1 16 C0.34 16 -0.32 16 -1 16 C-1.33 14.02 -1.66 12.04 -2 10 C-2.99 10.33 -3.98 10.66 -5 11 C-3.77472971 6.94718288 -2.30119506 3.55639236 0 0 Z " fill="#942B2B" transform="translate(92,39)"/>
<path d="M0 0 C5.61 0 11.22 0 17 0 C17.33 0.99 17.66 1.98 18 3 C11.73 3 5.46 3 -1 3 C-0.67 2.01 -0.34 1.02 0 0 Z " fill="#FFFAF9" transform="translate(118,162)"/>
<path d="M0 0 C3.08089673 2.77280706 4.68775452 5.06326356 6 9 C4.68 9 3.36 9 2 9 C2.2784375 9.928125 2.2784375 9.928125 2.5625 10.875 C3 13 3 13 2 15 C1.34 14.67 0.68 14.34 0 14 C0 12.02 0 10.04 0 8 C-4.89895217 6.81503452 -4.89895217 6.81503452 -9.4375 8.4375 C-9.953125 8.953125 -10.46875 9.46875 -11 10 C-10.67 8.68 -10.34 7.36 -10 6 C-9.195625 5.87625 -8.39125 5.7525 -7.5625 5.625 C-6.716875 5.41875 -5.87125 5.2125 -5 5 C-4.67 4.34 -4.34 3.68 -4 3 C-2.02 4.32 -0.04 5.64 2 7 C1.34 4.69 0.68 2.38 0 0 Z " fill="#952F2E" transform="translate(146,37)"/>
<path d="M0 0 C2.64 0 5.28 0 8 0 C8 2.31 8 4.62 8 7 C7.34 7 6.68 7 6 7 C6 6.34 6 5.68 6 5 C4.68 5 3.36 5 2 5 C2 5.66 2 6.32 2 7 C1.34 7 0.68 7 0 7 C0 4.69 0 2.38 0 0 Z " fill="#626263" transform="translate(14,198)"/>
<path d="M0 0 C0.66 0 1.32 0 2 0 C2 1.65 2 3.3 2 5 C3.65 5 5.3 5 7 5 C7 3.35 7 1.7 7 0 C7.66 0 8.32 0 9 0 C9 1.65 9 3.3 9 5 C10.65 5 12.3 5 14 5 C14 5.66 14 6.32 14 7 C9.38 7 4.76 7 0 7 C0 4.69 0 2.38 0 0 Z " fill="#5E5D5D" transform="translate(87,198)"/>
<path d="M0 0 C2.31 0 4.62 0 7 0 C8 4.75 8 4.75 8 7 C7.34 7 6.68 7 6 7 C6 6.34 6 5.68 6 5 C4.68 5 3.36 5 2 5 C2 5.66 2 6.32 2 7 C1.34 7 0.68 7 0 7 C0 4.69 0 2.38 0 0 Z " fill="#606162" transform="translate(176,198)"/>
<path d="M0 0 C2.64 0 5.28 0 8 0 C8 1.98 8 3.96 8 6 C5.36 6 2.72 6 0 6 C0 4.02 0 2.04 0 0 Z " fill="#626162" transform="translate(132,208)"/>
<path d="M0 0 C0.99 0 1.98 0 3 0 C3 0.66 3 1.32 3 2 C4.32 2 5.64 2 7 2 C7 1.34 7 0.68 7 0 C7.66 0 8.32 0 9 0 C9 2.31 9 4.62 9 7 C8.34 7 7.68 7 7 7 C7 6.01 7 5.02 7 4 C5.68 4 4.36 4 3 4 C3 4.99 3 5.98 3 7 C2.01 7 1.02 7 0 7 C0 4.69 0 2.38 0 0 Z " fill="#656665" transform="translate(36,198)"/>
<path d="M0 0 C2.64 0 5.28 0 8 0 C8 0.66 8 1.32 8 2 C6.02 2 4.04 2 2 2 C2 2.99 2 3.98 2 5 C2.66 4.34 3.32 3.68 4 3 C5.32 3 6.64 3 8 3 C7.67 4.32 7.34 5.64 7 7 C4.69 7 2.38 7 0 7 C0 4.69 0 2.38 0 0 Z " fill="#575857" transform="translate(27,198)"/>
<path d="M0 0 C2.97 0 5.94 0 9 0 C9 0.66 9 1.32 9 2 C8.34 2 7.68 2 7 2 C7 3.65 7 5.3 7 7 C6.01 7 5.02 7 4 7 C4 5.35 4 3.7 4 2 C3.01 2 2.02 2 1 2 C1 3.65 1 5.3 1 7 C-0.32 6.67 -1.64 6.34 -3 6 C-2.01 6 -1.02 6 0 6 C0 4.02 0 2.04 0 0 Z " fill="#777878" transform="translate(68,198)"/>
<path d="M0 0 C2.4375 0.375 2.4375 0.375 5 1 C5.33 1.66 5.66 2.32 6 3 C6.33 2.01 6.66 1.02 7 0 C7.66 0 8.32 0 9 0 C9 1.98 9 3.96 9 6 C4.125 5.125 4.125 5.125 3 4 C2.67 4.66 2.34 5.32 2 6 C1.34 6 0.68 6 0 6 C0 4.02 0 2.04 0 0 Z " fill="#4B4C4D" transform="translate(86,208)"/>
<path d="M0 0 C0.99 0 1.98 0 3 0 C6 4.22222222 6 4.22222222 6 7 C3.03 7 0.06 7 -3 7 C-1.125 1.125 -1.125 1.125 0 0 Z " fill="#7A7979" transform="translate(141,198)"/>
<path d="M0 0 C2.31 0 4.62 0 7 0 C7.33 0.66 7.66 1.32 8 2 C5.03 1.505 5.03 1.505 2 1 C2 1.66 2 2.32 2 3 C3.98 3 5.96 3 8 3 C7.67 4.32 7.34 5.64 7 7 C4.69 7 2.38 7 0 7 C0 4.69 0 2.38 0 0 Z " fill="#545454" transform="translate(217,198)"/>
<path d="M0 0 C0.185625 0.639375 0.37125 1.27875 0.5625 1.9375 C1.94246056 4.42126213 1.94246056 4.42126213 5.625 4.75 C6.73875 4.8325 7.8525 4.915 9 5 C9.33 5.99 9.66 6.98 10 8 C9.01 8.33 8.02 8.66 7 9 C5.97299556 11.32891096 5.97299556 11.32891096 5.3125 14.0625 C5.06113281 14.98160156 4.80976562 15.90070313 4.55078125 16.84765625 C4.36902344 17.55792969 4.18726562 18.26820312 4 19 C2.94167341 15.82502023 3.10807816 14.68947804 3.6875 11.5 C4.05490846 9.14454146 4.05490846 9.14454146 4 7 C2.15604365 5.1371581 2.15604365 5.1371581 0 4 C0 2.68 0 1.36 0 0 Z " fill="#A12F2E" transform="translate(122,72)"/>
<path d="M0 0 C2.64 0 5.28 0 8 0 C8 0.33 8 0.66 8 1 C6.02 1 4.04 1 2 1 C2 1.66 2 2.32 2 3 C3.65 3 5.3 3 7 3 C7.33 4.32 7.66 5.64 8 7 C5.36 7 2.72 7 0 7 C0 4.69 0 2.38 0 0 Z " fill="#5D5D5E" transform="translate(77,208)"/>
<path d="M0 0 C0.33 0 0.66 0 1 0 C1.74294574 6.68651167 0.11650975 10.31774349 -3.39453125 15.99609375 C-5 18 -5 18 -8 19 C-6.93490333 16.85494484 -5.85429921 14.72085363 -4.74609375 12.59765625 C-4.31425781 11.76105469 -3.88242188 10.92445312 -3.4375 10.0625 C-3.00308594 9.22847656 -2.56867188 8.39445312 -2.12109375 7.53515625 C-1.00424297 5.00959474 -0.43288595 2.71891287 0 0 Z " fill="#F8D9D8" transform="translate(154,65)"/>
<path d="M0 0 C1.134375 0.020625 2.26875 0.04125 3.4375 0.0625 C3.4375 0.7225 3.4375 1.3825 3.4375 2.0625 C1.4575 2.0625 -0.5225 2.0625 -2.5625 2.0625 C-2.5625 3.0525 -2.5625 4.0425 -2.5625 5.0625 C-0.5825 4.7325 1.3975 4.4025 3.4375 4.0625 C3.4375 5.0525 3.4375 6.0425 3.4375 7.0625 C1.10455225 7.10491723 -1.22952567 7.10342937 -3.5625 7.0625 C-4.5625 6.0625 -4.5625 6.0625 -4.6875 3.5625 C-4.4904197 -0.37910609 -4.10054684 0.07193942 0 0 Z " fill="#535454" transform="translate(202.5625,197.9375)"/>
<path d="M0 0 C2.31 0 4.62 0 7 0 C7.33 0.66 7.66 1.32 8 2 C5.03 1.505 5.03 1.505 2 1 C2 1.66 2 2.32 2 3 C3.65 3 5.3 3 7 3 C7 4.32 7 5.64 7 7 C4.69 7 2.38 7 0 7 C0 4.66666667 0 2.33333333 0 0 Z " fill="#4F4E4F" transform="translate(158,198)"/>
<path d="M0 0 C1.67542976 0.28604898 3.34385343 0.61781233 5 1 C4.4409112 4.24271506 3.5867822 5.93057424 1 8 C0.34 8 -0.32 8 -1 8 C-1.04241723 5.66705225 -1.04092937 3.33297433 -1 1 C-0.67 0.67 -0.34 0.34 0 0 Z " fill="#FBDFDE" transform="translate(129,80)"/>
<path d="M0 0 C0.66 0 1.32 0 2 0 C2 1.65 2 3.3 2 5 C3.32 5 4.64 5 6 5 C6 3.35 6 1.7 6 0 C6.66 0 7.32 0 8 0 C8.04254356 1.99954746 8.04080783 4.00041636 8 6 C7 7 7 7 3.4375 7.0625 C2.303125 7.041875 1.16875 7.02125 0 7 C0 4.69 0 2.38 0 0 Z " fill="#555655" transform="translate(129,198)"/>
<path d="M0 0 C2.31 0 4.62 0 7 0 C7 0.33 7 0.66 7 1 C5.35 1 3.7 1 2 1 C2 1.66 2 2.32 2 3 C3.65 3 5.3 3 7 3 C7 4.32 7 5.64 7 7 C4.69 7 2.38 7 0 7 C0 4.69 0 2.38 0 0 Z " fill="#4F4F51" transform="translate(154,208)"/>
<path d="M0 0 C2.31 0 4.62 0 7 0 C7 0.33 7 0.66 7 1 C5.35 1 3.7 1 2 1 C2 1.66 2 2.32 2 3 C3.65 3 5.3 3 7 3 C7 4.32 7 5.64 7 7 C4.69 7 2.38 7 0 7 C0 4.69 0 2.38 0 0 Z " fill="#4B4C4C" transform="translate(208,198)"/>
<path d="M0 0 C2.31 0 4.62 0 7 0 C7 0.33 7 0.66 7 1 C5.35 1 3.7 1 2 1 C2 1.66 2 2.32 2 3 C3.65 3 5.3 3 7 3 C7 4.32 7 5.64 7 7 C4.69 7 2.38 7 0 7 C0 4.69 0 2.38 0 0 Z " fill="#4F4E4E" transform="translate(78,198)"/>
<path d="M0 0 C2.31 0 4.62 0 7 0 C7 0.33 7 0.66 7 1 C5.35 1 3.7 1 2 1 C2 1.66 2 2.32 2 3 C3.65 3 5.3 3 7 3 C7 4.32 7 5.64 7 7 C4.69 7 2.38 7 0 7 C0 4.69 0 2.38 0 0 Z " fill="#4C4D4C" transform="translate(167,198)"/>
<path d="M0 0 C0.66 0 1.32 0 2 0 C3.26788724 4.68142981 3.32130605 7.16218008 0.875 11.4375 C-0.51953125 13.46484375 -0.51953125 13.46484375 -2 15 C-4.8125 15.5 -4.8125 15.5 -7 15 C-6.195625 14.360625 -5.39125 13.72125 -4.5625 13.0625 C-1.5068643 10.92875933 -1.5068643 10.92875933 -0.68359375 7.71484375 C-0.60238281 6.79832031 -0.52117187 5.88179687 -0.4375 4.9375 C-0.35371094 4.01839844 -0.26992187 3.09929687 -0.18359375 2.15234375 C-0.12300781 1.44207031 -0.06242188 0.73179687 0 0 Z " fill="#F2CFCF" transform="translate(148,172)"/>
<path d="M0 0 C2.42364591 1.84658736 2.9629499 2.73846988 3.3984375 5.8125 C3.39070313 6.864375 3.38296875 7.91625 3.375 9 C3.38273437 10.051875 3.39046875 11.10375 3.3984375 12.1875 C2.9629499 15.26153012 2.42364591 16.15341264 0 18 C0.08378906 17.20335937 0.16757813 16.40671875 0.25390625 15.5859375 C1.04727138 7.75885538 1.04727138 7.75885538 0 0 Z " fill="#9B201F" transform="translate(79,154)"/>
<path d="M0 0 C3.27864546 1.09288182 3.78134149 1.66172933 5.6875 4.375 C6.34298828 5.28378906 6.34298828 5.28378906 7.01171875 6.2109375 C8 8 8 8 8 11 C8.66 11 9.32 11 10 11 C10 13.31 10 15.62 10 18 C9.731875 17.443125 9.46375 16.88625 9.1875 16.3125 C7.89746881 13.80033399 6.47011874 11.41099474 5 9 C3.20094464 6.0495492 1.49948473 3.11431444 0 0 Z " fill="#9A1F1E" transform="translate(95,83)"/>
<path d="M0 0 C1.2065625 0.0309375 1.2065625 0.0309375 2.4375 0.0625 C2.4375 2.0425 2.4375 4.0225 2.4375 6.0625 C0.7875 6.0625 -0.8625 6.0625 -2.5625 6.0625 C-2.94468767 4.40635343 -3.27645102 2.73792976 -3.5625 1.0625 C-2.5625 0.0625 -2.5625 0.0625 0 0 Z " fill="#F6D2D2" transform="translate(109.5625,79.9375)"/>
<path d="M0 0 C1.9375 0.6875 1.9375 0.6875 4 2 C4.8125 4.5625 4.8125 4.5625 5 7 C4 8 4 8 0.9375 8.0625 C-0.031875 8.041875 -1.00125 8.02125 -2 8 C-1.01 6.68 -0.02 5.36 1 4 C0.01 3.34 -0.98 2.68 -2 2 C-1.34 1.34 -0.68 0.68 0 0 Z " fill="#BFA2A1" transform="translate(128,39)"/>
<path d="M0 0 C-1.53794135 3.17989806 -3.256479 6.21481974 -5.0625 9.25 C-5.58972656 10.14203125 -6.11695313 11.0340625 -6.66015625 11.953125 C-7.10230469 12.62859375 -7.54445312 13.3040625 -8 14 C-8.33 14 -8.66 14 -9 14 C-9.36880965 9.69722076 -8.50637178 7.49101784 -6 4 C-2.43243243 0 -2.43243243 0 0 0 Z " fill="#9C1C1B" transform="translate(146,82)"/>
<path d="M0 0 C1.65 0.33 3.3 0.66 5 1 C5 2.98 5 4.96 5 7 C4.34 5.68 3.68 4.36 3 3 C2.01 4.485 2.01 4.485 1 6 C1 5.34 1 4.68 1 4 C-0.98 4.33 -2.96 4.66 -5 5 C-5 4.01 -5 3.02 -5 2 C-3.35 1.67 -1.7 1.34 0 1 C0 0.67 0 0.34 0 0 Z " fill="#DDDDDD" transform="translate(118,198)"/>
<path d="M0 0 C0.66 0.99 1.32 1.98 2 3 C1.67 3.99 1.34 4.98 1 6 C0.85507877 7.40664926 0.75371069 8.8181133 0.68359375 10.23046875 C0.64169922 11.03291016 0.59980469 11.83535156 0.55664062 12.66210938 C0.49766602 13.91217773 0.49766602 13.91217773 0.4375 15.1875 C0.39431641 16.03248047 0.35113281 16.87746094 0.30664062 17.74804688 C0.20068482 19.83184433 0.0998498 21.91590103 0 24 C-0.33 24 -0.66 24 -1 24 C-1.22236782 20.93793495 -1.42834898 17.87623354 -1.625 14.8125 C-1.68945312 13.94818359 -1.75390625 13.08386719 -1.8203125 12.19335938 C-2.10046459 7.62337835 -2.2531859 4.153774 0 0 Z " fill="#E79D9D" transform="translate(127,86)"/>
<path d="M0 0 C2.125 0.375 2.125 0.375 4 1 C4 1.66 4 2.32 4 3 C2.35 3.33 0.7 3.66 -1 4 C-0.67 4.99 -0.34 5.98 0 7 C1.98 7 3.96 7 6 7 C5.67 7.66 5.34 8.32 5 9 C2.125 9.125 2.125 9.125 -1 9 C-1.66 8.34 -2.32 7.68 -3 7 C-2.67028521 3.70285207 -2.3773161 2.3773161 0 0 Z " fill="#977170" transform="translate(109,39)"/>
<path d="M0 0 C1.32 0 2.64 0 4 0 C3.67 2.31 3.34 4.62 3 7 C1.02 7 -0.96 7 -3 7 C-2.34 6.34 -1.68 5.68 -1 5 C-0.35232207 2.42938689 -0.35232207 2.42938689 0 0 Z " fill="#919191" transform="translate(141,208)"/>
<path d="M0 0 C0.66 0 1.32 0 2 0 C2.33 1.32 2.66 2.64 3 4 C3.66 4 4.32 4 5 4 C5.33 2.68 5.66 1.36 6 0 C6.66 0 7.32 0 8 0 C7.125 4.75 7.125 4.75 6 7 C4.125 6.875 4.125 6.875 2 6 C0.75 2.9375 0.75 2.9375 0 0 Z " fill="#565656" transform="translate(185,198)"/>
<path d="M0 0 C0.66 0 1.32 0 2 0 C2 1.98 2 3.96 2 6 C-0.64 5.67 -3.28 5.34 -6 5 C-6 4.01 -6 3.02 -6 2 C-4.02 2 -2.04 2 0 2 C0 1.34 0 0.68 0 0 Z " fill="#DEDFDE" transform="translate(206,198)"/>
<path d="M0 0 C0 2.31 0 4.62 0 7 C-0.66 7 -1.32 7 -2 7 C-2 6.34 -2 5.68 -2 5 C-3.65 5 -5.3 5 -7 5 C-7 3.68 -7 2.36 -7 1 C-2.25 0 -2.25 0 0 0 Z " fill="#C4C5C4" transform="translate(176,198)"/>
<path d="M0 0 C0 2.31 0 4.62 0 7 C-0.66 7 -1.32 7 -2 7 C-2 6.34 -2 5.68 -2 5 C-3.65 5 -5.3 5 -7 5 C-7 3.68 -7 2.36 -7 1 C-2.25 0 -2.25 0 0 0 Z " fill="#C5C5C5" transform="translate(87,198)"/>
<path d="M0 0 C12.9019095 -0.68912276 12.9019095 -0.68912276 16.8125 2 C17.534375 2.66 18.25625 3.32 19 4 C18.34 5.32 17.68 6.64 17 8 C16.67 6.35 16.34 4.7 16 3 C10.72 2.34 5.44 1.68 0 1 C0 0.67 0 0.34 0 0 Z " fill="#AA4040" transform="translate(129,166)"/>
<path d="M0 0 C2.31 0 4.62 0 7 0 C7 0.33 7 0.66 7 1 C5.35 1 3.7 1 2 1 C2 1.66 2 2.32 2 3 C3.65 3 5.3 3 7 3 C7 3.99 7 4.98 7 6 C4.69 6 2.38 6 0 6 C0 4.02 0 2.04 0 0 Z " fill="#424141" transform="translate(105,208)"/>
<path d="M0 0 C2.31 0 4.62 0 7 0 C7 0.33 7 0.66 7 1 C5.35 1 3.7 1 2 1 C2 1.66 2 2.32 2 3 C3.65 3 5.3 3 7 3 C7 3.99 7 4.98 7 6 C4.69 6 2.38 6 0 6 C0 4.02 0 2.04 0 0 Z " fill="#424344" transform="translate(102,198)"/>
<path d="M0 0 C2.31 0 4.62 0 7 0 C6.01 0.495 6.01 0.495 5 1 C5 2.98 5 4.96 5 7 C4.01 7 3.02 7 2 7 C2 5.35 2 3.7 2 2 C1.34 2 0.68 2 0 2 C0 1.34 0 0.68 0 0 Z " fill="#676767" transform="translate(46,198)"/>
<path d="M0 0 C8.415 1.485 8.415 1.485 17 3 C17 3.33 17 3.66 17 4 C14.91695462 4.05418326 12.83350232 4.09287551 10.75 4.125 C9.00976562 4.15980469 9.00976562 4.15980469 7.234375 4.1953125 C4.17213954 4.0103949 2.55797249 3.60823023 0 2 C0 1.34 0 0.68 0 0 Z " fill="#A12828" transform="translate(95,74)"/>
<path d="M0 0 C0.33 0 0.66 0 1 0 C1.3690205 12.66970387 1.3690205 12.66970387 -1 18 C-1.66 17.67 -2.32 17.34 -3 17 C-2.125 12.125 -2.125 12.125 -1 11 C-0.76636119 9.15108054 -0.58696365 7.29511969 -0.4375 5.4375 C-0.35371094 4.42558594 -0.26992187 3.41367187 -0.18359375 2.37109375 C-0.12300781 1.58863281 -0.06242188 0.80617187 0 0 Z " fill="#A53B3A" transform="translate(154,53)"/>
<path d="M0 0 C0 2.31 0 4.62 0 7 C-1.65 7 -3.3 7 -5 7 C-4.6875 4.625 -4.6875 4.625 -4 2 C-1 0 -1 0 0 0 Z " fill="#9D0B0A" transform="translate(98,35)"/>
<path d="M0 0 C2.31 0 4.62 0 7 0 C7 1.65 7 3.3 7 5 C5.35 5 3.7 5 2 5 C2 4.34 2 3.68 2 3 C2.99 3 3.98 3 5 3 C5 2.34 5 1.68 5 1 C3.68 1 2.36 1 1 1 C1 2.65 1 4.3 1 6 C0.67 6 0.34 6 0 6 C0 4.02 0 2.04 0 0 Z " fill="#454444" transform="translate(123,208)"/>
<path d="M0 0 C2.64 0 5.28 0 8 0 C7.67 0.99 7.34 1.98 7 3 C7 2.34 7 1.68 7 1 C5.35 1 3.7 1 2 1 C2 1.66 2 2.32 2 3 C3.32 3.33 4.64 3.66 6 4 C4.68 4 3.36 4 2 4 C2 4.99 2 5.98 2 7 C1.34 7 0.68 7 0 7 C0 4.69 0 2.38 0 0 Z " fill="#4A4B4C" transform="translate(113,208)"/>
<path d="M0 0 C0.66 1.32 1.32 2.64 2 4 C1.01 4.33 0.02 4.66 -1 5 C-0.67 5.66 -0.34 6.32 0 7 C0.04022391 9.3329866 0.04320247 11.66706666 0 14 C-2.40563753 11.59436247 -2.60358311 10.32990189 -3 7 C-2.5625 4.6875 -2.5625 4.6875 -2 3 C-1.34 3 -0.68 3 0 3 C0 2.01 0 1.02 0 0 Z " fill="#A0211F" transform="translate(89,59)"/>
<path d="M0 0 C0.33 0 0.66 0 1 0 C1.05449838 1.72880982 1.09301688 3.45812712 1.125 5.1875 C1.14820312 6.15042969 1.17140625 7.11335937 1.1953125 8.10546875 C0.9913544 11.12812778 0.26874632 13.26769985 -1 16 C-2.32 15.01 -3.64 14.02 -5 13 C-4.360625 12.525625 -3.72125 12.05125 -3.0625 11.5625 C-0.15149728 7.94579965 -0.19350218 4.52795106 0 0 Z " fill="#FBD3D3" transform="translate(82,160)"/>
<path d="M0 0 C0.33 0 0.66 0 1 0 C1.38863565 2.12254855 1.76053209 4.24816828 2.125 6.375 C2.33382812 7.55835937 2.54265625 8.74171875 2.7578125 9.9609375 C2.83773437 10.96382812 2.91765625 11.96671875 3 13 C2.34 13.66 1.68 14.32 1 15 C0.01 11.7 -0.98 8.4 -2 5 C-1.34 5 -0.68 5 0 5 C0 3.35 0 1.7 0 0 Z " fill="#F5BAB9" transform="translate(112,81)"/>
<path d="M0 0 C1.32 0.33 2.64 0.66 4 1 C3.67 2.98 3.34 4.96 3 7 C2.34 7 1.68 7 1 7 C0.67 8.32 0.34 9.64 0 11 C0 7.37 0 3.74 0 0 Z " fill="#960F0E" transform="translate(86,55)"/>
<path d="M0 0 C0.66 0 1.32 0 2 0 C2 1.65 2 3.3 2 5 C3.65 5 5.3 5 7 5 C7 5.66 7 6.32 7 7 C4.69 7 2.38 7 0 7 C0 4.69 0 2.38 0 0 Z " fill="#595857" transform="translate(148,198)"/>
<path d="M0 0 C1.670625 0.061875 1.670625 0.061875 3.375 0.125 C3.045 0.785 2.715 1.445 2.375 2.125 C-0.6875 2.75 -0.6875 2.75 -3.625 3.125 C-3.955 4.115 -4.285 5.105 -4.625 6.125 C-5.25 4.25 -5.25 4.25 -5.625 2.125 C-3.625 0.125 -3.625 0.125 0 0 Z " fill="#F1CACA" transform="translate(103.625,35.875)"/>
<path d="M0 0 C0 2.95274099 -0.43891831 4.49058403 -1.5 7.1875 C-1.7784375 7.90292969 -2.056875 8.61835937 -2.34375 9.35546875 C-2.5603125 9.89816406 -2.776875 10.44085938 -3 11 C-3.66 11 -4.32 11 -5 11 C-4.50769231 4.6 -4.50769231 4.6 -1.9375 1.5625 C-0.9784375 0.7890625 -0.9784375 0.7890625 0 0 Z " fill="#992120" transform="translate(132,85)"/>
<path d="M0 0 C0.33 0.99 0.66 1.98 1 3 C-0.21484375 5.26171875 -0.21484375 5.26171875 -1.9375 7.6875 C-2.50339844 8.49574219 -3.06929687 9.30398437 -3.65234375 10.13671875 C-4.09707031 10.75160156 -4.54179687 11.36648437 -5 12 C-5.33 11.34 -5.66 10.68 -6 10 C-4.78515625 7.6171875 -4.78515625 7.6171875 -3.0625 4.875 C-2.21365234 3.50988281 -2.21365234 3.50988281 -1.34765625 2.1171875 C-0.90292969 1.41851562 -0.45820313 0.71984375 0 0 Z " fill="#FCDEDD" transform="translate(142,88)"/>
<path d="M0 0 C1.65 0 3.3 0 5 0 C5.33 1.98 5.66 3.96 6 6 C4.02 5.34 2.04 4.68 0 4 C0 2.68 0 1.36 0 0 Z " fill="#878789" transform="translate(115,209)"/>
<path d="M0 0 C0.66 0 1.32 0 2 0 C2 2.97 2 5.94 2 9 C1.01 8.67 0.02 8.34 -1 8 C-0.67 5.36 -0.34 2.72 0 0 Z " fill="#A22323" transform="translate(48,178)"/>
<path d="M0 0 C1.65 0 3.3 0 5 0 C6.60725635 3.21451269 6.05748185 6.43612536 6 10 C5.67 10 5.34 10 5 10 C5 8.02 5 6.04 5 4 C4.34 4 3.68 4 3 4 C3 3.34 3 2.68 3 2 C2.01 2 1.02 2 0 2 C0 1.34 0 0.68 0 0 Z " fill="#E0B1B1" transform="translate(112,54)"/>
<path d="M0 0 C3.63 0.33 7.26 0.66 11 1 C11 1.33 11 1.66 11 2 C6.38 2.33 1.76 2.66 -3 3 C-2.01 2.67 -1.02 2.34 0 2 C0 1.34 0 0.68 0 0 Z " fill="#FBDEDC" transform="translate(112,23)"/>
<path d="M0 0 C0.99 0 1.98 0 3 0 C6 4.22222222 6 4.22222222 6 7 C5.34 7 4.68 7 4 7 C2.375 5 2.375 5 1 3 C0.01 3.495 0.01 3.495 -1 4 C-0.67 2.68 -0.34 1.36 0 0 Z " fill="#4F4F4F" transform="translate(141,198)"/>
<path d="M0 0 C0.99 0.33 1.98 0.66 3 1 C2.34 1.66 1.68 2.32 1 3 C0.60235737 4.98821313 0.26224651 6.98944339 0 9 C1.98 9.495 1.98 9.495 4 10 C2.35 10 0.7 10 -1 10 C-1.02689216 8.52093108 -1.04634621 7.04172517 -1.0625 5.5625 C-1.07410156 4.73878906 -1.08570312 3.91507813 -1.09765625 3.06640625 C-1 1 -1 1 0 0 Z " fill="#FAE2E1" transform="translate(123,54)"/>
<path d="M0 0 C0.33 0 0.66 0 1 0 C1 2.64 1 5.28 1 8 C0.34 7.34 -0.32 6.68 -1 6 C-1.99 6.495 -1.99 6.495 -3 7 C-2.67 5.35 -2.34 3.7 -2 2 C-1.34 2 -0.68 2 0 2 C0 1.34 0 0.68 0 0 Z " fill="#A00909" transform="translate(90,47)"/>
</svg>
