<svg version="1.1" id="Layer_1" xmlns="http://www.w3.org/2000/svg" xmlns:xlink="http://www.w3.org/1999/xlink" x="0px" y="0px"
	 width="100%" viewBox="0 0 500 500" enable-background="new 0 0 500 500" xml:space="preserve">
<path fill="#FEFEFE" opacity="1.000000" stroke="none" 
	d="
M222.000000,0.999998 
	C241.020889,1.000000 260.041779,1.000000 279.233246,1.372457 
	C279.779205,2.030856 280.133850,2.533402 280.532959,2.571632 
	C299.015808,4.342158 316.875000,8.817545 334.336121,14.987809 
	C379.772430,31.043709 417.713593,57.956081 447.435364,95.699173 
	C476.247437,132.287064 494.000946,173.894913 499.365234,220.462097 
	C499.430634,221.029953 500.434296,221.489761 501.000000,222.000000 
	C501.000000,241.020889 501.000000,260.041779 500.625793,279.226685 
	C499.733032,282.904724 499.340607,286.442810 498.675568,289.928925 
	C494.136536,313.722870 487.464508,336.823608 476.950806,358.762329 
	C460.213745,393.687317 436.876678,423.445679 406.462769,447.287079 
	C369.731903,476.080475 328.169922,493.895844 281.575165,499.365326 
	C280.994171,499.433533 280.522644,500.434479 280.000000,501.000000 
	C260.979095,501.000000 241.958206,501.000000 222.766754,500.627533 
	C222.220779,499.969116 221.866119,499.466553 221.466980,499.428314 
	C202.984116,497.657806 185.124924,493.182465 167.663849,487.012207 
	C122.227554,470.956299 84.286430,444.043945 54.564659,406.300842 
	C25.752562,369.712952 7.999064,328.105133 2.634748,281.537964 
	C2.569327,280.970093 1.565691,280.510254 0.999998,280.000000 
	C1.000000,260.979095 1.000000,241.958206 1.374195,222.773315 
	C2.266948,219.095322 2.659376,215.557251 3.324400,212.071182 
	C7.863449,188.277237 14.535510,165.176468 25.049192,143.237701 
	C41.786251,108.312683 65.123413,78.554420 95.537270,54.712936 
	C132.268173,25.919506 173.830200,8.104153 220.424927,2.634640 
	C221.005905,2.566442 221.477402,1.565539 222.000000,0.999998 
M402.084839,145.342041 
	C401.768707,145.152847 401.452576,144.963638 401.136078,144.917419 
	C401.136078,144.917419 401.271942,144.872849 401.246582,144.254745 
	C400.849457,143.804611 400.452332,143.354462 400.022430,142.973419 
	C400.022430,142.973419 400.098816,142.977280 399.943787,142.387039 
	C399.658325,142.102890 399.372864,141.818756 399.053558,141.190308 
	C399.053558,141.190308 398.780212,140.978271 398.560028,140.363388 
	C397.539795,139.263382 396.519562,138.163376 394.740997,136.245743 
	C394.740997,214.310455 394.740997,290.996704 394.740997,369.215302 
	C396.602966,366.397003 397.650726,364.811096 399.275513,362.967316 
	C408.194702,351.406219 415.022949,338.666718 420.078400,325.019318 
	C434.392365,286.378174 436.727051,246.821747 428.288879,206.623642 
	C423.950653,185.957062 416.834991,166.322601 404.193115,148.328827 
	C403.826416,148.156830 403.459717,147.984833 403.157990,147.954697 
	C403.157990,147.954697 403.286713,147.866577 403.326324,147.230438 
	C402.928131,146.766388 402.529907,146.302338 402.094543,145.923233 
	C402.094543,145.923233 402.187164,145.919464 402.084839,145.342041 
M315.797699,137.832642 
	C316.100037,137.991959 316.402374,138.151276 316.654907,138.349945 
	C316.654907,138.349945 316.651398,138.413315 316.800690,139.011383 
	C317.859161,140.031189 318.917633,141.050980 320.156891,142.595764 
	C320.692078,143.095886 321.227295,143.596008 321.976624,144.753937 
	C323.731628,146.822388 325.486633,148.890839 327.241638,150.959290 
	C327.851074,150.800781 328.460480,150.642273 329.069916,150.483765 
	C329.069916,144.718979 329.069916,138.954208 329.303619,132.918503 
	C329.456482,132.679245 329.427399,132.464966 329.524780,131.406967 
	C329.613800,129.261292 329.702820,127.115616 329.929901,124.502441 
	C329.929901,124.502441 329.845398,124.022362 330.005219,123.170448 
	C330.133972,121.163788 330.262726,119.157135 330.738373,117.069885 
	C330.738373,117.069885 330.992920,116.820824 331.925812,116.927612 
	C346.966156,116.927612 362.006531,116.927612 377.046875,116.927612 
	C377.256287,116.255783 377.465698,115.583961 377.675079,114.912132 
	C373.448303,111.944336 369.221558,108.976547 365.001221,106.002350 
	C365.001221,106.002350 365.006348,105.995369 364.684723,105.407066 
	C362.182770,103.849747 359.680817,102.292427 357.125244,100.937080 
	C357.125244,100.937080 357.229889,100.756203 356.952362,100.151680 
	C355.355560,99.278694 353.758728,98.405708 351.843292,97.176903 
	C351.399353,97.022240 350.955444,96.867577 350.126862,96.150497 
	C349.122498,95.667015 348.118134,95.183533 346.783020,94.310509 
	C346.307434,94.144608 345.831879,93.978706 344.937897,93.320091 
	C344.335297,93.130035 343.732666,92.939980 343.056976,92.919136 
	C343.056976,92.919136 343.178619,92.780663 342.813171,92.224785 
	C341.590851,91.734558 340.368500,91.244331 339.001984,90.892456 
	C339.001984,90.892456 339.174408,90.791443 338.782806,90.214966 
	C336.527985,89.358139 334.273132,88.501312 331.824768,87.543655 
	C331.824768,87.543655 331.625031,87.631470 331.206879,87.070305 
	C328.518158,86.309364 325.829437,85.548431 323.039215,84.902489 
	C323.039215,84.902489 323.177734,84.836617 322.969910,84.192688 
	C321.297516,83.592941 319.625153,82.993195 317.398163,82.136177 
	C317.195923,82.111023 316.993713,82.085861 316.700836,81.785614 
	C316.700836,81.785614 316.438995,81.672852 316.438995,81.672852 
	C316.438995,81.672852 316.251984,81.887794 315.495605,81.495529 
	C314.663788,81.335030 313.832001,81.174530 312.482758,80.506264 
	C309.304657,79.808029 306.126526,79.109795 302.320648,78.161972 
	C301.873566,78.131248 301.426483,78.100517 300.376709,77.610291 
	C291.571716,76.490646 282.766754,75.370995 273.181061,74.084229 
	C272.118835,74.077263 271.056580,74.070305 269.193085,73.835335 
	C267.542358,73.649529 265.891815,73.303162 264.240875,73.301300 
	C216.287399,73.247116 168.333832,73.253082 120.380486,73.152985 
	C116.558846,73.145012 115.249702,74.335503 115.268227,78.348091 
	C115.425751,112.481316 115.355751,146.615555 115.378853,180.749481 
	C115.379761,182.088440 115.631897,183.427216 115.766975,184.766083 
	C116.172935,184.843918 116.578896,184.921753 116.984856,184.999588 
	C120.015053,179.348892 123.045250,173.698181 126.005508,168.002304 
	C126.005508,168.002304 126.054161,168.069855 126.614235,167.730621 
	C127.202133,166.600647 127.790031,165.470688 128.355652,164.192474 
	C128.355652,164.192474 128.447205,164.311172 128.990662,164.059143 
	C129.661133,163.042084 130.331589,162.025009 131.526855,160.601624 
	C136.620193,155.124634 141.402435,149.312805 146.867249,144.235626 
	C161.280334,130.844879 178.991257,123.145027 197.845154,116.106102 
	C203.895355,114.734779 209.945557,113.363457 216.871155,112.062416 
	C218.581268,111.786804 220.291382,111.511192 222.582108,111.509323 
	C223.378967,111.321869 224.175812,111.134415 225.894791,111.036255 
	C229.265594,110.816719 232.636398,110.597191 236.888718,110.677811 
	C240.928879,110.672432 244.969055,110.667061 249.871567,110.883751 
	C253.276398,111.145523 256.681244,111.407288 260.850220,111.938423 
	C271.892609,113.680962 282.736572,116.126129 292.416809,122.035080 
	C299.335358,126.258270 306.086334,130.756012 312.990631,135.042908 
	C312.990631,135.042908 312.882935,135.091675 313.138824,135.663437 
	C313.957703,136.231750 314.776581,136.800049 315.657501,137.362885 
	C315.657501,137.362885 315.687561,137.308319 315.797699,137.832642 
M316.248077,207.335800 
	C314.511292,204.697876 312.949860,201.922729 311.009888,199.443817 
	C295.928040,180.172241 275.748901,170.935196 251.630997,170.439728 
	C223.112411,169.853851 199.282990,179.706848 183.340683,204.338623 
	C172.123657,221.669525 169.271957,241.226242 171.273605,261.433136 
	C173.530045,284.212372 183.371567,303.324493 201.768829,317.175415 
	C218.367813,329.672455 237.674759,333.340332 258.088715,331.477081 
	C274.640289,329.966370 289.681885,324.317780 301.809540,312.732666 
	C331.708282,284.171478 333.306519,239.022339 316.248077,207.335800 
M289.871246,381.431580 
	C257.101654,397.010040 223.575912,395.187256 190.039276,384.927490 
	C155.503311,374.362030 131.944611,350.934387 116.261116,317.551270 
	C116.261116,356.031403 116.261116,392.940491 116.261116,430.177704 
	C119.578827,430.372131 122.550591,430.691101 125.523087,430.698029 
	C154.838745,430.766571 184.156662,431.014099 213.469559,430.740967 
	C236.434189,430.527008 259.465851,430.604004 282.336975,428.848480 
	C318.287994,426.088989 349.812012,411.853394 377.105591,388.301819 
	C377.782593,387.717621 378.229187,386.866333 379.393158,385.339630 
	C376.823242,385.209595 375.092896,385.049591 373.362183,385.046051 
	C360.869720,385.020325 348.375519,384.914032 335.885681,385.095062 
	C332.429535,385.145142 331.267548,383.995026 331.057800,380.601990 
	C330.513702,371.801422 329.637512,363.020905 328.844208,354.236816 
	C328.723114,352.895996 328.338196,351.578979 327.871552,349.221527 
	C317.141693,362.984222 305.058929,373.509216 289.871246,381.431580 
z"/>
<path fill="#010101" opacity="1.000000" stroke="none" 
	d="
M221.531342,0.999998 
	C221.477402,1.565539 221.005905,2.566442 220.424927,2.634640 
	C173.830200,8.104153 132.268173,25.919506 95.537270,54.712936 
	C65.123413,78.554420 41.786251,108.312683 25.049192,143.237701 
	C14.535510,165.176468 7.863449,188.277237 3.324400,212.071182 
	C2.659376,215.557251 2.266948,219.095322 1.374195,222.304657 
	C1.000000,148.406296 1.000000,74.812584 1.000000,1.000000 
	C74.354080,1.000000 147.708389,1.000000 221.531342,0.999998 
z"/>
<path fill="#010101" opacity="1.000000" stroke="none" 
	d="
M280.468658,501.000000 
	C280.522644,500.434479 280.994171,499.433533 281.575165,499.365326 
	C328.169922,493.895844 369.731903,476.080475 406.462769,447.287079 
	C436.876678,423.445679 460.213745,393.687317 476.950806,358.762329 
	C487.464508,336.823608 494.136536,313.722870 498.675568,289.928925 
	C499.340607,286.442810 499.733032,282.904724 500.625793,279.695343 
	C501.000000,353.593689 501.000000,427.187408 501.000000,501.000000 
	C427.645905,501.000000 354.291626,501.000000 280.468658,501.000000 
z"/>
<path fill="#010101" opacity="1.000000" stroke="none" 
	d="
M501.000000,221.531342 
	C500.434296,221.489761 499.430634,221.029953 499.365234,220.462097 
	C494.000946,173.894913 476.247437,132.287064 447.435364,95.699173 
	C417.713593,57.956081 379.772430,31.043709 334.336121,14.987809 
	C316.875000,8.817545 299.015808,4.342158 280.532959,2.571632 
	C280.133850,2.533402 279.779205,2.030856 279.701904,1.372457 
	C353.593689,1.000000 427.187408,1.000000 501.000000,1.000000 
	C501.000000,74.354080 501.000000,147.708389 501.000000,221.531342 
z"/>
<path fill="#010101" opacity="1.000000" stroke="none" 
	d="
M0.999998,280.468658 
	C1.565691,280.510254 2.569327,280.970093 2.634748,281.537964 
	C7.999064,328.105133 25.752562,369.712952 54.564659,406.300842 
	C84.286430,444.043945 122.227554,470.956299 167.663849,487.012207 
	C185.124924,493.182465 202.984116,497.657806 221.466980,499.428314 
	C221.866119,499.466553 222.220779,499.969116 222.298096,500.627533 
	C148.406296,501.000000 74.812599,501.000000 1.000000,501.000000 
	C1.000000,427.645905 1.000000,354.291626 0.999998,280.468658 
z"/>
<path fill="#13AFC0" opacity="1.000000" stroke="none" 
	d="
M316.437744,207.654144 
	C333.306519,239.022339 331.708282,284.171478 301.809540,312.732666 
	C289.681885,324.317780 274.640289,329.966370 258.088715,331.477081 
	C237.674759,333.340332 218.367813,329.672455 201.768829,317.175415 
	C183.371567,303.324493 173.530045,284.212372 171.273605,261.433136 
	C169.271957,241.226242 172.123657,221.669525 183.340683,204.338623 
	C199.282990,179.706848 223.112411,169.853851 251.630997,170.439728 
	C275.748901,170.935196 295.928040,180.172241 311.009888,199.443817 
	C312.949860,201.922729 314.511292,204.697876 316.437744,207.654144 
z"/>
<path fill="#5A86C7" opacity="1.000000" stroke="none" 
	d="
M290.206177,381.268250 
	C305.058929,373.509216 317.141693,362.984222 327.871552,349.221527 
	C328.338196,351.578979 328.723114,352.895996 328.844208,354.236816 
	C329.637512,363.020905 330.513702,371.801422 331.057800,380.601990 
	C331.267548,383.995026 332.429535,385.145142 335.885681,385.095062 
	C348.375519,384.914032 360.869720,385.020325 373.362183,385.046051 
	C375.092896,385.049591 376.823242,385.209595 379.393158,385.339630 
	C378.229187,386.866333 377.782593,387.717621 377.105591,388.301819 
	C349.812012,411.853394 318.287994,426.088989 282.336975,428.848480 
	C259.465851,430.604004 236.434189,430.527008 213.469559,430.740967 
	C184.156662,431.014099 154.838745,430.766571 125.523087,430.698029 
	C122.550591,430.691101 119.578827,430.372131 116.261116,430.177704 
	C116.261116,392.940491 116.261116,356.031403 116.261116,317.551270 
	C131.944611,350.934387 155.503311,374.362030 190.039276,384.927490 
	C223.575912,395.187256 257.101654,397.010040 290.206177,381.268250 
z"/>
<path fill="#5985C7" opacity="1.000000" stroke="none" 
	d="
M350.511505,96.712921 
	C350.955444,96.867577 351.399353,97.022240 352.061371,97.721001 
	C353.929596,99.095467 355.579742,99.925835 357.229889,100.756203 
	C357.229889,100.756203 357.125244,100.937080 357.221466,101.185150 
	C359.880585,102.953934 362.443451,104.474648 365.006348,105.995369 
	C365.006348,105.995369 365.001221,106.002350 365.030579,106.352585 
	C367.362183,109.344337 369.664398,111.985863 372.066833,114.742348 
	C370.920349,114.815704 369.356201,114.998924 367.791626,115.002510 
	C357.026306,115.027199 346.259918,114.944084 335.496643,115.093903 
	C333.987671,115.114906 332.493774,116.218414 330.992920,116.820831 
	C330.992920,116.820824 330.738373,117.069885 330.178284,117.105095 
	C329.141418,118.176430 328.299957,119.193794 328.245514,120.251656 
	C327.804321,128.827057 327.510712,137.410049 327.188416,145.578262 
	C325.010254,144.983276 323.386383,144.539703 321.762482,144.096130 
	C321.227295,143.596008 320.692078,143.095886 320.073425,141.951248 
	C318.877075,140.342255 317.764252,139.377777 316.651398,138.413315 
	C316.651398,138.413315 316.654907,138.349945 316.666016,138.039246 
	C316.347290,137.588486 316.017426,137.448395 315.687561,137.308319 
	C315.687561,137.308319 315.657501,137.362885 315.720642,136.986450 
	C314.816833,136.103897 313.849884,135.597778 312.882935,135.091675 
	C312.882935,135.091675 312.990631,135.042908 312.951782,134.727905 
	C311.923431,133.133896 311.156708,131.557541 309.909210,130.622971 
	C299.998993,123.198692 289.273163,117.076881 277.432983,113.511963 
	C271.961700,111.864624 265.887115,112.221100 260.086060,111.669060 
	C256.681244,111.407288 253.276398,111.145523 249.313629,110.413292 
	C244.506195,110.087776 240.256699,110.232719 236.007202,110.377655 
	C232.636398,110.597191 229.265594,110.816719 225.268127,110.762756 
	C223.761475,110.738037 222.881485,110.986809 222.001495,111.235580 
	C220.291382,111.511192 218.581268,111.786804 216.166260,111.743134 
	C208.833282,111.085167 202.601471,112.305229 197.027008,116.110710 
	C178.991257,123.145027 161.280334,130.844879 146.867249,144.235626 
	C141.402435,149.312805 136.620193,155.124634 130.909973,160.838364 
	C129.677780,162.153793 129.062500,163.232483 128.447205,164.311172 
	C128.447205,164.311172 128.355652,164.192474 127.997299,164.283813 
	C127.110687,165.606705 126.582420,166.838287 126.054153,168.069855 
	C126.054161,168.069855 126.005508,168.002304 125.682198,168.046585 
	C123.241570,170.892548 121.124260,173.694229 118.177750,177.593140 
	C117.687973,174.397400 117.040390,172.117493 117.034378,169.835922 
	C116.963707,143.003616 116.977478,116.171059 117.008949,89.338608 
	C117.011833,86.878334 117.591484,84.392464 117.382759,81.963211 
	C116.789330,75.056259 116.748940,74.979965 123.775299,74.979752 
	C170.607147,74.978340 217.439011,74.993805 264.270813,74.946602 
	C266.178955,74.944679 268.086517,74.370766 269.994354,74.063339 
	C271.056580,74.070305 272.118835,74.077263 273.681763,74.520081 
	C282.710236,76.266357 291.236298,77.588646 299.771942,78.845703 
	C300.128601,78.898224 300.574890,78.342270 300.979401,78.069794 
	C301.426483,78.100517 301.873566,78.131248 302.724365,78.625648 
	C306.418793,79.730896 309.709503,80.372467 313.000183,81.014030 
	C313.832001,81.174530 314.663788,81.335030 315.958740,81.728180 
	C316.421844,81.960838 316.791504,82.060707 316.791504,82.060707 
	C316.993713,82.085861 317.195923,82.111023 317.774261,82.580505 
	C319.826141,83.628761 321.501953,84.232689 323.177734,84.836617 
	C323.177734,84.836617 323.039215,84.902489 323.113647,85.237595 
	C326.000397,86.258957 328.812714,86.945213 331.625031,87.631470 
	C331.625031,87.631470 331.824768,87.543655 332.039490,87.961250 
	C334.560974,89.183044 336.867676,89.987244 339.174408,90.791443 
	C339.174408,90.791443 339.001984,90.892456 339.167542,91.178818 
	C340.614929,91.903679 341.896790,92.342171 343.178619,92.780663 
	C343.178619,92.780663 343.056976,92.919136 343.231567,93.154251 
	C344.056213,93.530510 344.706268,93.671661 345.356293,93.812813 
	C345.831879,93.978706 346.307434,94.144608 347.047424,94.866470 
	C348.378418,95.852592 349.444946,96.282753 350.511505,96.712921 
z"/>
<path fill="#5986C7" opacity="1.000000" stroke="none" 
	d="
M398.780212,140.978271 
	C398.780212,140.978271 399.053558,141.190308 399.134216,141.670074 
	C399.509521,142.425644 399.804169,142.701462 400.098816,142.977264 
	C400.098816,142.977280 400.022430,142.973419 400.049011,143.263306 
	C400.474396,143.993088 400.873169,144.432968 401.271942,144.872849 
	C401.271942,144.872849 401.136078,144.917419 401.202209,145.121841 
	C401.574585,145.523987 401.880890,145.721725 402.187164,145.919464 
	C402.187164,145.919464 402.094543,145.923233 402.092712,146.214539 
	C402.489471,146.959427 402.888092,147.413010 403.286713,147.866577 
	C403.286713,147.866577 403.157990,147.954697 403.253845,148.174789 
	C403.728149,148.564835 404.106598,148.734772 404.485077,148.904709 
	C416.834991,166.322601 423.950653,185.957062 428.288879,206.623642 
	C436.727051,246.821747 434.392365,286.378174 420.078400,325.019318 
	C415.022949,338.666718 408.194702,351.406219 398.531494,362.990356 
	C397.190460,361.139740 396.073883,359.266754 396.071472,357.392334 
	C395.984772,289.954834 396.002075,222.517197 396.004730,155.079575 
	C396.004852,151.582809 395.756897,148.059540 396.129272,144.602997 
	C396.268097,143.314514 397.854126,142.181946 398.780212,140.978271 
z"/>
<path fill="#7694BE" opacity="1.000000" stroke="none" 
	d="
M269.593719,73.949341 
	C268.086517,74.370766 266.178955,74.944679 264.270813,74.946602 
	C217.439011,74.993805 170.607147,74.978340 123.775299,74.979752 
	C116.748940,74.979965 116.789330,75.056259 117.382759,81.963211 
	C117.591484,84.392464 117.011833,86.878334 117.008949,89.338608 
	C116.977478,116.171059 116.963707,143.003616 117.034378,169.835922 
	C117.040390,172.117493 117.687973,174.397400 118.177750,177.593140 
	C121.124260,173.694229 123.241570,170.892548 125.717171,168.069183 
	C123.045250,173.698181 120.015053,179.348892 116.984856,184.999588 
	C116.578896,184.921753 116.172935,184.843918 115.766975,184.766083 
	C115.631897,183.427216 115.379761,182.088440 115.378853,180.749481 
	C115.355751,146.615555 115.425751,112.481316 115.268227,78.348091 
	C115.249702,74.335503 116.558846,73.145012 120.380486,73.152985 
	C168.333832,73.253082 216.287399,73.247116 264.240875,73.301300 
	C265.891815,73.303162 267.542358,73.649529 269.593719,73.949341 
z"/>
<path fill="#5E7DAD" opacity="1.000000" stroke="none" 
	d="
M398.670105,140.670837 
	C397.854126,142.181946 396.268097,143.314514 396.129272,144.602997 
	C395.756897,148.059540 396.004852,151.582809 396.004730,155.079575 
	C396.002075,222.517197 395.984772,289.954834 396.071472,357.392334 
	C396.073883,359.266754 397.190460,361.139740 398.243011,363.119324 
	C397.650726,364.811096 396.602966,366.397003 394.740997,369.215302 
	C394.740997,290.996704 394.740997,214.310455 394.740997,136.245743 
	C396.519562,138.163376 397.539795,139.263382 398.670105,140.670837 
z"/>
<path fill="#708FBC" opacity="1.000000" stroke="none" 
	d="
M331.459351,116.874222 
	C332.493774,116.218414 333.987671,115.114906 335.496643,115.093903 
	C346.259918,114.944084 357.026306,115.027199 367.791626,115.002510 
	C369.356201,114.998924 370.920349,114.815704 372.066833,114.742348 
	C369.664398,111.985863 367.362183,109.344337 365.027344,106.355782 
	C369.221558,108.976547 373.448303,111.944336 377.675079,114.912132 
	C377.465698,115.583961 377.256287,116.255783 377.046875,116.927612 
	C362.006531,116.927612 346.966156,116.927612 331.459351,116.874222 
z"/>
<path fill="#6B8AB9" opacity="1.000000" stroke="none" 
	d="
M260.468140,111.803741 
	C265.887115,112.221100 271.961700,111.864624 277.432983,113.511963 
	C289.273163,117.076881 299.998993,123.198692 309.909210,130.622971 
	C311.156708,131.557541 311.923431,133.133896 312.912476,134.772064 
	C306.086334,130.756012 299.335358,126.258270 292.416809,122.035080 
	C282.736572,116.126129 271.892609,113.680962 260.468140,111.803741 
z"/>
<path fill="#6B8AB9" opacity="1.000000" stroke="none" 
	d="
M321.869568,144.425034 
	C323.386383,144.539703 325.010254,144.983276 327.188416,145.578262 
	C327.510712,137.410049 327.804321,128.827057 328.245514,120.251656 
	C328.299957,119.193794 329.141418,118.176430 330.004822,117.145386 
	C330.262726,119.157135 330.133972,121.163788 329.783966,123.681267 
	C329.352936,124.513130 329.429321,124.772415 329.791870,124.969940 
	C329.702820,127.115616 329.613800,129.261292 329.317322,131.985626 
	C329.050781,132.769699 329.037476,132.978088 329.069916,133.189423 
	C329.069916,138.954208 329.069916,144.718979 329.069916,150.483765 
	C328.460480,150.642273 327.851074,150.800781 327.241638,150.959290 
	C325.486633,148.890839 323.731628,146.822388 321.869568,144.425034 
z"/>
<path fill="#7694BE" opacity="1.000000" stroke="none" 
	d="
M300.678040,77.840042 
	C300.574890,78.342270 300.128601,78.898224 299.771942,78.845703 
	C291.236298,77.588646 282.710236,76.266357 274.072083,74.603638 
	C282.766754,75.370995 291.571716,76.490646 300.678040,77.840042 
z"/>
<path fill="#6B8AB9" opacity="1.000000" stroke="none" 
	d="
M197.436081,116.108406 
	C202.601471,112.305229 208.833282,111.085167 215.728577,111.707993 
	C209.945557,113.363457 203.895355,114.734779 197.436081,116.108406 
z"/>
<path fill="#6B8AB9" opacity="1.000000" stroke="none" 
	d="
M236.447968,110.527733 
	C240.256699,110.232719 244.506195,110.087776 248.882446,110.302261 
	C244.969055,110.667061 240.928879,110.672432 236.447968,110.527733 
z"/>
<path fill="#7694BE" opacity="1.000000" stroke="none" 
	d="
M312.741455,80.760147 
	C309.709503,80.372467 306.418793,79.730896 303.038269,78.750443 
	C306.126526,79.109795 309.304657,79.808029 312.741455,80.760147 
z"/>
<path fill="#7694BE" opacity="1.000000" stroke="none" 
	d="
M331.415955,87.350891 
	C328.812714,86.945213 326.000397,86.258957 323.164398,85.180099 
	C325.829437,85.548431 328.518158,86.309364 331.415955,87.350891 
z"/>
<path fill="#7694BE" opacity="1.000000" stroke="none" 
	d="
M364.845520,105.701218 
	C362.443451,104.474648 359.880585,102.953934 357.248291,101.084167 
	C359.680817,102.292427 362.182770,103.849747 364.845520,105.701218 
z"/>
<path fill="#7694BE" opacity="1.000000" stroke="none" 
	d="
M338.978607,90.503204 
	C336.867676,89.987244 334.560974,89.183044 332.136292,88.011665 
	C334.273132,88.501312 336.527985,89.358139 338.978607,90.503204 
z"/>
<path fill="#7694BE" opacity="1.000000" stroke="none" 
	d="
M323.073822,84.514648 
	C321.501953,84.232689 319.826141,83.628761 318.051575,82.709137 
	C319.625153,82.993195 321.297516,83.592941 323.073822,84.514648 
z"/>
<path fill="#7694BE" opacity="1.000000" stroke="none" 
	d="
M357.091125,100.453941 
	C355.579742,99.925835 353.929596,99.095467 352.220703,97.898911 
	C353.758728,98.405708 355.355560,99.278694 357.091125,100.453941 
z"/>
<path fill="#6B8AB9" opacity="1.000000" stroke="none" 
	d="
M316.726044,138.712341 
	C317.764252,139.377777 318.877075,140.342255 319.983032,141.688751 
	C318.917633,141.050980 317.859161,140.031189 316.726044,138.712341 
z"/>
<path fill="#6B8AB9" opacity="1.000000" stroke="none" 
	d="
M222.291809,111.372452 
	C222.881485,110.986809 223.761475,110.738037 224.807068,110.718109 
	C224.175812,111.134415 223.378967,111.321869 222.291809,111.372452 
z"/>
<path fill="#7694BE" opacity="1.000000" stroke="none" 
	d="
M342.995911,92.502724 
	C341.896790,92.342171 340.614929,91.903679 339.239624,91.109650 
	C340.368500,91.244331 341.590851,91.734558 342.995911,92.502724 
z"/>
<path fill="#7694BE" opacity="1.000000" stroke="none" 
	d="
M126.334198,167.900238 
	C126.582420,166.838287 127.110687,165.606705 128.008438,164.357925 
	C127.790031,165.470688 127.202133,166.600647 126.334198,167.900238 
z"/>
<path fill="#7694BE" opacity="1.000000" stroke="none" 
	d="
M128.718933,164.185150 
	C129.062500,163.232483 129.677780,162.153793 130.647568,161.041534 
	C130.331589,162.025009 129.661133,163.042084 128.718933,164.185150 
z"/>
<path fill="#6B8AB9" opacity="1.000000" stroke="none" 
	d="
M313.010864,135.377548 
	C313.849884,135.597778 314.816833,136.103897 315.689636,136.989166 
	C314.776581,136.800049 313.957703,136.231750 313.010864,135.377548 
z"/>
<path fill="#7694BE" opacity="1.000000" stroke="none" 
	d="
M350.319183,96.431709 
	C349.444946,96.282753 348.378418,95.852592 347.212830,95.061234 
	C348.118134,95.183533 349.122498,95.667015 350.319183,96.431709 
z"/>
<path fill="#5E7DAD" opacity="1.000000" stroke="none" 
	d="
M401.259277,144.563797 
	C400.873169,144.432968 400.474396,143.993088 400.065430,143.228760 
	C400.452332,143.354462 400.849457,143.804611 401.259277,144.563797 
z"/>
<path fill="#5E7DAD" opacity="1.000000" stroke="none" 
	d="
M403.306519,147.548508 
	C402.888092,147.413010 402.489471,146.959427 402.111267,146.172073 
	C402.529907,146.302338 402.928131,146.766388 403.306519,147.548508 
z"/>
<path fill="#7694BE" opacity="1.000000" stroke="none" 
	d="
M345.147095,93.566452 
	C344.706268,93.671661 344.056213,93.530510 343.268127,93.069641 
	C343.732666,92.939980 344.335297,93.130035 345.147095,93.566452 
z"/>
<path fill="#5E7DAD" opacity="1.000000" stroke="none" 
	d="
M402.135986,145.630753 
	C401.880890,145.721725 401.574585,145.523987 401.202393,145.050354 
	C401.452576,144.963638 401.768707,145.152847 402.135986,145.630753 
z"/>
<path fill="#5E7DAD" opacity="1.000000" stroke="none" 
	d="
M404.339111,148.616760 
	C404.106598,148.734772 403.728149,148.564835 403.221344,148.103851 
	C403.459717,147.984833 403.826416,148.156830 404.339111,148.616760 
z"/>
<path fill="#5E7DAD" opacity="1.000000" stroke="none" 
	d="
M400.021301,142.682159 
	C399.804169,142.701462 399.509521,142.425644 399.151123,141.842224 
	C399.372864,141.818756 399.658325,142.102890 400.021301,142.682159 
z"/>
<path fill="#7694BE" opacity="1.000000" stroke="none" 
	d="
M316.746155,81.923157 
	C316.791504,82.060707 316.421844,81.960838 316.336914,81.924316 
	C316.251984,81.887794 316.438995,81.672852 316.438995,81.672852 
	C316.438995,81.672852 316.700836,81.785614 316.746155,81.923157 
z"/>
<path fill="#6B8AB9" opacity="1.000000" stroke="none" 
	d="
M315.742615,137.570480 
	C316.017426,137.448395 316.347290,137.588486 316.690918,138.019562 
	C316.402374,138.151276 316.100037,137.991959 315.742615,137.570480 
z"/>
<path fill="#708FBC" opacity="1.000000" stroke="none" 
	d="
M329.860901,124.736191 
	C329.429321,124.772415 329.352936,124.513130 329.704041,124.107224 
	C329.845398,124.022362 329.929901,124.502441 329.860901,124.736191 
z"/>
<path fill="#708FBC" opacity="1.000000" stroke="none" 
	d="
M329.186768,133.053955 
	C329.037476,132.978088 329.050781,132.769699 329.163116,132.419983 
	C329.427399,132.464966 329.456482,132.679245 329.186768,133.053955 
z"/>
</svg>